<?xml version="1.0" encoding="utf-8" ?><svg xmlns="http://www.w3.org/2000/svg" xmlns:xlink="http://www.w3.org/1999/xlink" width="1024" height="1024" viewBox="0 0 1024 1024"><path fill="#181717" d="M458.814 290.189C467.587 289.717 478.649 290.129 486.308 294.631C503.5 304.735 520.537 318.906 536.64 330.61C578.431 360.716 619.934 391.221 661.142 422.121C691.989 422.784 724.552 421.142 755.032 422.777C785.842 424.43 821.461 441.42 844.454 461.675C858.799 474.311 880.512 497.16 889.047 514.767C892.433 521.666 894.473 529.147 895.058 536.81C897.219 565.263 880.219 589.504 851.965 595.219C842.033 597.228 832.425 596.671 822.372 596.611L788.496 596.452C749.076 596.343 709.655 596.474 670.236 596.847C655.702 597.01 637.19 596.42 623.053 597.272C612.416 606.484 599.468 620.344 589.304 630.403L527.302 691.875C517.388 701.795 496.473 725.166 484.457 730.234C447.654 745.754 394.469 716.717 413.185 671.865C416.765 663.753 424.065 651.195 428.427 643.132C436.58 627.79 444.825 612.497 453.164 597.255C439.699 596.488 426.015 596.994 412.516 596.977C335.219 596.88 285.592 603.554 221.167 551.822C212.417 544.796 204.433 536.816 196.237 529.166C188.345 528.729 180.044 528.997 172.116 528.964C160.249 528.954 149.517 529.8 139.978 521.544C119.744 504.034 128.678 469.906 154.64 464.09C158.569 463.209 162.273 463.127 166.217 462.913C162.081 438.223 155.628 412.696 150.861 388.041C149.043 378.642 145.338 365.588 144.293 356.425C143.747 351.69 143.95 346.898 144.895 342.226C147.126 330.809 153.878 320.778 163.616 314.415C178.64 304.611 200.137 304.813 213.414 316.585C223.762 325.758 235.804 346.209 243.742 358.203L286.082 422.648C310.665 423.394 338.19 422.687 363.2 422.808C382.702 422.89 402.205 422.863 421.708 422.727C431.406 422.683 442.951 422.97 452.429 422.523C450.755 418.511 445.845 410.438 443.505 406.311L422.596 370.004C417.622 361.311 411.645 352.668 410.141 342.611C405.619 312.368 431.328 293.636 458.814 290.189ZM191.771 463.667C209.895 464.099 228.212 459.799 241.238 473.618C247.363 479.999 250.609 488.609 250.223 497.445C249.927 506.031 246.236 514.148 239.96 520.015C236.914 522.842 234.099 524.212 230.9 526.522C241.319 536.988 250.558 543.208 263.045 550.373C293.476 567.834 319.841 572.463 354.284 572.541L435.944 572.562C445.738 572.543 456.936 572.967 466.444 572.727C479.311 552.161 489.589 529.663 502.331 509.011C503.848 506.552 507.787 502.356 510.693 501.735C519.98 500.213 531.309 500.676 540.761 500.676L586.845 500.684L647.016 500.611C657.943 500.588 668.835 500.503 679.73 500.773C688.324 500.986 693.904 505.013 695.648 513.668C697.574 523.232 686.605 530.895 680.676 536.983C675.14 542.666 669.822 548.196 664.274 553.813C658.799 559.394 650.757 566.263 646.133 572.244L717.25 572.388C747.752 572.567 778.254 572.576 808.756 572.414C814.69 572.382 820.61 572.47 826.626 572.334C837.962 571.984 846.462 573.942 856.34 566.925C872.046 555.768 876.348 532.655 862.343 518.29C855.538 511.309 845.979 513.106 837.017 513.1L804.406 513.088C782.775 513.091 757.935 514.464 746.026 491.493C740.838 481.488 739.593 459.712 737.774 447.618C722.205 446.489 700.644 447.009 684.785 447.206C664.693 447.438 644.599 447.526 624.506 447.472L382.55 447.989L310.242 448.062C267.531 448.111 276.814 453.678 253.449 418.549L214.373 359.472C207.666 349.454 200.245 333.57 187.343 332.517C185.984 332.403 184.616 332.419 183.259 332.564C163.812 339.971 169.487 354.367 172.63 370.418C174.901 381.809 177.257 393.183 179.699 404.539L188.797 448.191C189.835 453.217 190.63 458.795 191.771 463.667ZM164.349 488.712C161.235 489.076 158.166 489.515 156.18 492.211C154.891 493.96 154.128 496.329 154.497 498.505C154.728 499.868 155.361 500.898 156.504 501.687C160.483 504.433 208.527 503.496 216.102 503.493C219.065 502.963 222.04 502.275 223.789 499.578C224.827 497.978 225.382 495.656 224.97 493.775C224.677 492.437 223.825 491.378 222.673 490.666C217.734 487.615 173.417 488.961 164.349 488.712ZM481.708 422.766L591.75 422.574C600.201 422.557 609.913 422.749 618.26 422.356C611.444 416.48 601.13 409.358 593.681 403.91L555.005 375.233C535.979 360.85 516.821 346.642 497.535 332.61C486.988 324.995 475.428 312.95 461.352 315.178C447.179 316.936 427.773 326.641 437.043 344.147C451.092 370.681 467.874 396.191 481.708 422.766ZM763.882 448.851C765.138 458.284 765.56 470.816 768.159 479.602C770.135 486.281 782.11 488.501 788.075 488.086C803.876 487.894 819.849 488.335 835.631 487.411C821.435 470.082 785.622 451.802 763.882 448.851ZM658.179 526.557C618.665 525.188 578.448 526.665 538.87 526.031C532.758 525.933 526.438 526.039 520.323 526.251C515.531 534.13 511.058 542.94 506.574 551.118L474.717 610.03L451.521 653.146C446.484 662.445 441.548 671.307 436.891 680.935C426.182 702.344 454.694 711.888 470.779 708.241C473.481 707.629 478.201 704.736 480.36 702.788C495.43 689.192 509.414 673.856 524.08 659.874L658.179 526.557Z"/><path fill="#181717" d="M326.06 489.106C336.573 488.468 403.42 487.998 408.856 490.219C411.935 491.476 414.18 494.472 415.233 497.54C416.365 500.837 416.002 504.31 414.44 507.411C412.527 511.21 409.309 512.797 405.408 513.98C380.908 514.654 355.917 513.735 331.378 514.139C328.055 514.194 323.625 514.146 320.719 512.437C317.74 510.686 315.594 507.806 314.767 504.45C312.674 495.989 318.225 490.681 326.06 489.106Z"/></svg>