<?xml version="1.0" encoding="utf-8" ?><svg xmlns="http://www.w3.org/2000/svg" xmlns:xlink="http://www.w3.org/1999/xlink" width="1024" height="1024" viewBox="0 0 1024 1024"><path fill="#0B0A09" d="M731.435 361.247C747.503 361.455 794.866 363.032 806.336 372.848C815.428 380.629 812.055 394.598 812.815 405.205C834.987 405.791 851.677 403.042 869.558 420.64C883.287 434.154 886.796 447.6 886.933 466.245L886.986 680.42L886.999 739.595C887.021 750.721 887.617 769.178 885.85 779.605C883.908 790.75 878.613 801.038 870.67 809.093C852.688 827.074 834.974 826.461 811.498 826.484L773.534 826.489L647.784 826.508L212.067 826.473C192.407 826.511 177.992 826.937 161.42 813.995C150.687 805.613 142.417 790.998 140.595 777.506C139.777 771.449 140.07 760.734 140.087 754.281L140.078 724.524L140.167 614.886L140.112 506.78L140.03 474.86C139.981 455.239 139.688 441.27 152.858 425.03C162.668 412.931 175.674 406.691 191.174 405.741C197.947 405.326 205.102 405.72 211.781 404.992L212.483 404.912C212.587 390.455 209.084 374.49 227.101 369.375C243.873 364.614 260.884 362.789 278.227 361.768C366.549 356.567 449.383 389.242 514.132 448.495C515.215 447.351 516.306 446.216 517.407 445.09C525.623 436.627 538.618 426.374 548.115 419.428C587.434 391.057 632.902 372.382 680.812 364.925C698.578 362.227 713.512 361.498 731.435 361.247ZM245.546 398.201L245.651 698.933C314.673 690.185 384.709 703.087 446.082 735.857C456.271 741.259 466.221 747.746 475.909 754.006C482.759 758.968 489.799 764.212 496.747 768.991C497.536 751.643 497.003 731.025 496.996 713.379L496.923 609.29L496.933 522.04C496.901 509.096 497.411 489.702 496.502 477.321C487.352 468.367 479.572 460.762 469.511 452.822C419.104 413.191 356.562 392.175 292.452 393.324C288.286 393.374 283.479 393.421 279.336 393.714C267.15 394.367 257.438 395.531 245.546 398.201ZM193.143 437.099C179.979 439.95 172.181 447.452 171.831 461.592C171.623 469.969 171.695 478.344 171.694 486.723L171.694 531.808L171.728 670.987L171.698 740.026C171.695 746.24 171.568 752.558 171.686 758.759C171.974 769.328 170.034 776.975 177.687 785.418C186.917 795.599 195.028 794.039 207.438 794.16C212.959 794.214 218.552 794.165 224.051 794.163L278.703 794.173L459.375 794.002L476.349 794.003C467.378 785.386 455.082 777.557 444.358 771.159C395.784 742.144 340.09 727.23 283.517 728.089C272.594 728.3 261.277 729.434 250.347 730.404C243.332 731.027 234.916 733.355 227.903 732.934C224.901 732.754 220.598 730.479 218.541 728.355C216.425 726.169 214.394 723.604 213.978 720.463C212.979 712.928 213.072 704.8 213.059 697.218L213.016 664.924L212.881 553.196L213.002 437.142C207.303 436.937 198.722 436.563 193.143 437.099ZM779.465 698.425C780.401 690.543 779.903 673.649 779.893 664.923L779.823 601.455C780.074 533.738 779.966 466.021 779.499 398.305C760.879 394.636 743.851 392.776 724.797 393.228C710.188 393.774 696.339 394.619 681.897 397.164C627.049 406.83 568.014 435.215 530.098 476.792L530.099 669.711L530.143 732.41C530.163 744.178 529.814 757.152 530.555 768.777C542.361 761.122 552.406 752.358 565.297 745.201C614.978 714.566 671.932 697.742 730.285 696.463C749.104 696.117 761.693 697.721 779.465 698.425ZM814.483 436.749C813.711 437.058 812.76 437.221 812.742 437.828C812.268 453.237 812.486 478.837 812.488 493.64L812.46 670.606C812.452 687.437 813.064 704.814 811.658 721.5C810.946 723.988 808.463 727.08 806.54 728.501C798.231 734.642 786.167 730.841 776.589 729.821C693.633 720.987 614.163 741.738 547.988 793.935L583.25 793.996L751.415 794.067L804.767 794.117C814.037 794.124 824.271 794.399 833.501 793.702C837.752 793.381 843.101 790.213 846.161 787.176C850.313 783.1 853.001 777.766 853.806 772.003C854.611 765.825 854.007 747.453 853.998 740.184L853.986 675.078L853.946 543.548C853.972 517.978 854.02 492.385 853.97 466.817C853.953 458.194 853.262 450.34 846.723 443.828C839.486 436.621 830.514 436.289 821.065 436.474C818.869 436.515 816.674 436.606 814.483 436.749Z"/><path fill="#0B0A09" d="M516.059 190.264C530.731 189.603 545.321 190.503 560.442 189.975C572.124 189.567 584.851 191.345 586.154 206.715C586.901 215.521 586.456 225.314 586.46 234.245L586.472 281.229L586.452 311.294C586.433 317.287 586.558 323.646 585.854 329.573C585.441 334.07 579.826 340.706 575.35 341.532C565.309 343.385 552.408 342.398 542.126 342.261C529.189 342.097 516.251 342.049 503.313 342.116L470.635 342.117C455.186 342.107 440.862 345.687 440.515 325.582C440.161 305.033 457.287 309.385 471.842 309.011C478.752 308.834 485.693 309.113 492.492 309.169C512.773 309.384 533.055 309.427 553.337 309.299C553.726 300.723 553.598 288.873 553.289 280.239C545.756 279.654 534.584 279.983 526.699 279.982L479.041 279.98C473.23 279.979 458.292 280.323 453.226 279.464C450.315 278.994 447.604 277.685 445.425 275.697C437.057 268.184 441.521 240.324 440.455 229.118C440.362 216.786 440.698 208.832 454.64 207.489C479.308 205.112 473.265 230.511 473.668 247.606C480.753 248.156 490.799 248.105 497.869 247.696C498.165 240.502 496.653 210.058 499.239 205.965C501.298 202.706 512.627 191.102 516.059 190.264ZM530.137 247.365C536.961 247.722 546.507 248.132 553.128 247.709C553.977 246.159 553.56 225.626 553.491 222.586C545.838 222.409 538.181 222.454 530.529 222.72C529.876 227.567 530.026 242.159 530.137 247.365Z"/><path fill="#0B0A09" d="M563.138 122.614C569.912 122.151 584.454 120.824 585.831 131.289C586.996 140.144 587.429 150.719 576.481 153.001C569.811 153.778 556.082 154.712 554.329 146.561C551.988 135.669 551.711 126.452 563.138 122.614Z"/><path fill="#0B0A09" d="M451.918 151.237C456.811 151.197 463.62 150.656 467.704 153.12C469.822 154.152 473.068 158.342 473.321 160.786C474.327 170.504 474.669 179.339 463.095 181.554C454.49 181.611 442.263 183.534 440.767 171.172C439.564 161.22 440.463 153.01 451.918 151.237Z"/></svg>