<?xml version="1.0" encoding="utf-8" ?><svg xmlns="http://www.w3.org/2000/svg" xmlns:xlink="http://www.w3.org/1999/xlink" width="1024" height="1024" viewBox="0 0 1024 1024"><path d="M512.637 246.454C517.304 240.636 521.355 234.861 526.299 229.203C544.377 208.508 567.963 192.386 594.057 183.667C603.777 180.419 620.542 176.749 630.813 176.063C644.467 175.151 660.081 175.488 673.945 175.496L745.719 175.538L800.529 175.464C810.697 175.383 827.574 174.82 837.273 175.684C844.543 176.278 851.626 178.284 858.126 181.592C872.68 189.061 882.942 201.096 887.865 216.668C891.393 227.827 890.403 247.154 890.409 259.485L890.469 299.105L890.443 479.522L890.504 646.39L890.58 707.419C890.565 719.308 890.872 731.615 890.12 743.461C888.582 767.698 871.68 786.638 849.105 793.669C834.965 797.017 806.243 795.971 790.522 796.007L676.847 796.005L642.912 795.973C634.708 795.966 625.925 795.713 617.654 796.588C592.182 799.283 566.3 810.508 547.883 828.519C543.032 833.263 540.333 838.662 536.277 843.535C531.473 849.301 524.557 852.9 517.079 853.524C498.935 854.891 493.674 845.552 482.837 833.459C467.194 816.005 446.322 804.594 423.602 799.357C407.11 795.555 393.406 795.954 376.653 796L343.121 796.028L232.615 795.994C220.304 795.998 191.751 796.766 180.65 794.522C171.155 792.507 162.332 788.103 155.015 781.726C131.999 761.695 135.989 735.487 136.012 708.156L136.014 646.205L136.003 451.438L135.992 300.483L135.994 253.903C135.997 246.542 135.686 233.611 136.417 226.63C137.665 215.272 142.358 204.568 149.864 195.953C160.159 184.284 174.296 176.749 189.89 175.717C199.736 175.062 215.427 175.526 225.792 175.517L296.438 175.527L357.994 175.422C373.671 175.415 389.783 174.937 405.315 177.174C436.065 181.603 466.867 196.989 489.218 218.463C498.048 226.946 505.37 236.65 512.637 246.454ZM539.83 768.849C545.116 766.287 550.719 763.023 556.22 760.327C567.522 754.817 579.397 750.571 591.63 747.666C610.963 743.238 625.553 743.557 645.215 743.538L682.286 743.535L794.773 743.549C802.167 743.559 830.682 744.332 835.551 742.282C837.748 739.963 837.892 739.075 837.916 735.905C837.982 727.057 837.971 718.208 837.973 709.361L837.934 632.247L837.928 312.731L837.916 259.835C837.913 251.159 837.949 242.473 837.784 233.8C837.74 231.476 834.87 228.594 832.575 228.404C824.967 227.775 817.151 228.001 809.508 228.009L761.086 228.092L678.566 228.078C663.328 228.067 641.567 227.267 627.231 229.533C612.127 231.897 597.753 237.645 585.185 246.348C561.8 262.448 545.881 287.282 541.016 315.253C539.384 317.144 538.668 318.562 538.648 321.162C538.569 331.404 538.534 341.705 538.516 351.946L538.466 409.625L538.451 572.265L538.486 700.36L538.58 741.02C538.579 746.184 537.894 758.038 538.655 762.645L539.502 763.061L539.83 768.849ZM188.052 233.633C188.646 242.259 188.227 253.75 188.196 262.679L188.153 311.624L188.152 590.241L188.212 680.713C188.212 697.827 188.125 715.03 188.417 732.145C188.447 733.937 188.974 740.894 190.22 742.022C191.254 742.957 196.472 743.487 198.219 743.498C213.832 743.599 229.543 743.543 245.156 743.544L346.187 743.494C363.302 743.496 382.353 743.123 399.316 743.646C407.553 743.823 415.771 744.541 423.915 745.794C444.418 749.076 464.119 756.194 481.985 766.776L486.327 768.775C486.818 730.334 486.243 691.075 486.163 652.571L486.148 467.06L486.176 378.268C486.225 333.272 490.389 292.373 454.584 257.934C434.522 238.637 409.762 228.229 381.862 228.026L263.255 228.059L217.49 228.024C209.426 228.014 200.226 227.772 192.264 228.102C189.885 230.015 189.432 230.874 188.052 233.633Z"/><path d="M539.502 763.061L538.655 762.645C537.894 758.038 538.579 746.184 538.58 741.02L538.486 700.36L538.451 572.265L538.466 409.625L538.516 351.946C538.534 341.705 538.569 331.404 538.648 321.162C538.668 318.562 539.384 317.144 541.016 315.253C538.862 326.868 539.55 347.329 539.557 359.943L539.599 429.258L539.58 651.238L539.621 724.43C539.625 736.245 540.07 751.53 539.502 763.061Z"/></svg>