<?xml version="1.0" encoding="utf-8" ?><svg xmlns="http://www.w3.org/2000/svg" xmlns:xlink="http://www.w3.org/1999/xlink" width="1024" height="1024" viewBox="0 0 1024 1024"><path d="M399.609 173.693C408.808 172.877 427.95 173.42 437.787 173.419L512.72 173.42L587.403 173.413C600.067 173.418 612.734 173.205 625.388 173.685C634.82 174.042 642.169 178.659 645.861 187.609C647.615 191.864 647.588 196.048 648.059 200.553C672.015 200.681 699.106 194.721 698.04 228.897C697.962 231.382 698.041 234.182 698.04 236.697L698.002 273.192C697.995 279.544 697.545 288.584 698.561 294.67L699.517 294.66L773.213 294.468C787.813 294.454 816.066 293.459 828.764 296.527C840.372 299.417 850.97 305.423 859.412 313.896C873.899 328.228 879.86 345.227 879.932 365.256L879.948 650.92L879.952 732.917C879.958 742.84 880.654 766.675 879.176 775.673C876.888 789.812 870.135 802.849 859.906 812.875C840.107 832.593 818.895 832.693 793.134 832.758L753.78 832.694L624.968 832.573L332.943 832.62L249.498 832.622C238.453 832.627 213.101 833.239 203.115 831.716C189.26 829.61 176.399 823.256 166.307 813.532C153.344 801.203 145.551 785.523 145.464 767.565C145.334 741.013 145.475 714.376 145.414 687.824L145.268 497.419L145.335 401.934C145.34 389.479 144.611 361.798 146.302 351.151C148.545 337.796 154.739 325.419 164.085 315.618C188.366 290.316 213.045 294.727 244.899 294.533C272.327 294.366 300.124 295.42 327.507 294.856C327.951 291.055 327.62 280.754 327.603 276.355L327.471 237.984C327.438 226.899 325.944 215.707 334.385 207.221C342.008 199.557 351.79 200.362 361.624 200.381L377.659 200.375C378.823 185.99 383.188 175.277 399.609 173.693ZM817.315 816.158C831.749 814.361 844.027 807.201 852.969 795.758C859.002 787.993 862.69 778.665 863.597 768.873C864.25 762.365 863.959 751.21 863.964 744.355L863.966 701.932L863.923 564.468L863.953 423.354L863.952 382.629C863.959 374.05 864.281 364.862 863.328 356.191C860.921 334.304 841.336 314.614 819.401 312.229C810.439 311.254 799.649 311.645 790.56 311.622L744.216 311.573L596.757 311.537L339.313 311.607L255.755 311.618C240.985 311.598 223.372 311.14 208.861 311.693C192.206 313.628 178.615 321.338 169.689 335.83C159.818 351.857 161.638 367.312 161.609 385.404L161.56 432.082L161.558 584.083L161.567 710.661L161.559 747.809C161.555 754.547 161.232 765.303 162.168 771.703C164.14 785.2 171.936 797.893 182.706 806.121C190.267 811.873 199.283 815.4 208.74 816.306C217.375 817.062 232.369 816.579 241.349 816.561L303.261 816.438L494.907 816.471L709.011 816.497L779.232 816.522C790.331 816.516 806.619 816.978 817.315 816.158ZM345.159 294.549L553.808 294.419L636.624 294.565C651.07 294.608 666.385 294.925 680.778 294.636C680.53 288.285 680.664 281.161 680.659 274.75L680.603 241.607C680.597 235.659 681.677 223.133 678.3 218.534C674.889 216.64 653.667 217.461 648.094 217.501C647.669 231.013 640.984 241.385 626.578 242.437C616.682 243.159 606.7 242.832 596.775 242.805L545.754 242.81L456.019 242.675C438.468 242.695 420.905 242.793 403.355 242.682C387.003 242.58 378.548 233.334 377.81 217.129C369.649 217.7 360.362 216.873 352.192 217.166C348.762 217.594 345.74 218.159 345.543 222.443C345.165 230.687 345.358 239.011 345.324 247.272L345.159 294.549ZM627.138 225.907C628.212 225.149 630.441 223.576 630.295 222.065C629.83 217.247 633.122 191.69 627.056 190.903C622.679 190.335 610.871 190.443 605.957 190.427L556.843 190.358L452.819 190.475C436.376 190.477 414.96 189.817 398.923 190.498C397.773 191.247 395.698 192.721 395.77 194.194C395.997 198.858 392.98 224.796 398.84 225.555C403.03 226.097 414.442 226.033 418.959 226.042L462.675 226.114L569.557 226.009C587.88 225.996 609.007 226.543 627.138 225.907Z"/><path d="M807.901 785.206C798.907 789.994 782.801 789.022 772.679 789.046L740.775 789.096L615.64 789.071L360.797 789.114L278.626 789.128C273.607 789.13 268.275 789.319 263.358 789.144C242.138 788.39 220.279 793.484 204.523 775.393C192.977 762.138 193.667 751.421 193.844 734.695C193.96 723.7 193.909 712.268 193.911 701.321L193.958 580.489L193.877 442.668L193.682 402.237C193.636 394.269 193.384 384.727 193.884 376.863C194.284 370.428 196.321 364.202 199.801 358.775C213.49 337.054 234.183 338.987 256.684 339.153L292.576 339.343L418.726 339.34L675.597 339.408L751.216 339.415C764.537 339.368 778.022 338.896 791.322 339.249C809.861 339.741 827.043 353.394 830.829 371.742C829.486 376.523 829.879 393.089 829.901 398.778L829.911 433.256L829.924 670.909L829.988 730.65C830.002 733.73 830.07 736.783 830.11 739.869C830.181 745.282 831.002 750.435 829.946 755.797C827.52 768.108 819.166 778.112 808.245 784.002C808.13 784.403 808.016 784.804 807.901 785.206ZM436.54 500.513C435.819 504.82 435.973 518.201 436.643 522.488C443.386 523.118 455.509 522.807 462.625 522.842L554.843 522.736C561.89 522.671 583.416 523.181 589.025 522.36C589.247 517.773 589.462 504.71 589.173 500.26C580.507 500.112 571.838 500.109 563.171 500.253L481.195 500.414C467.324 500.393 450.073 499.847 436.54 500.513Z"/><path d="M807.901 785.206C808.016 784.804 808.13 784.403 808.245 784.002C819.166 778.112 827.52 768.108 829.946 755.797C831.002 750.435 830.181 745.282 830.11 739.869C830.07 736.783 830.002 733.73 829.988 730.65L829.924 670.909L829.911 433.256L829.901 398.778C829.879 393.089 829.486 376.523 830.829 371.742C832.525 378.729 831.983 409.688 831.991 419.042L832.037 516.831L832.006 673.546L831.994 722.59C832.003 732.266 832.107 742.086 831.776 751.741C831.328 764.776 820.358 780.836 807.901 785.206Z"/></svg>