<?xml version="1.0" encoding="utf-8" ?><svg xmlns="http://www.w3.org/2000/svg" xmlns:xlink="http://www.w3.org/1999/xlink" width="1024" height="1024" viewBox="0 0 1024 1024"><path fill="#040405" d="M246.557 377.08C255.802 376.668 266.747 376.876 276.096 376.881L325.97 376.931L476.182 377.027L620.063 376.924L676.734 376.847C685.391 376.882 694.116 376.911 702.773 377.054C704.892 377.089 707.371 378.017 709.05 379.188C710.532 380.223 711.804 383.992 711.917 385.72C712.766 398.668 711.514 412.154 712.526 425.113C712.555 425.322 712.585 425.531 712.614 425.739C722.182 426.217 732.432 425.616 742.108 426.273C767.97 428.095 792.356 439.004 810.951 457.07C831.287 476.609 842.951 503.478 843.337 531.677C844.289 596.086 787.239 644.265 724.514 639.942C719.068 639.567 711.96 639.992 706.375 640.05C705.656 643.124 704.185 647.506 703.237 650.627C701.637 656.122 699.736 661.524 697.54 666.809C677.798 714.532 643.405 749.377 595.577 769.177C581.311 775.162 566.285 779.141 550.926 781.003C529.17 783.831 494.474 782.661 471.993 782.679C450.776 782.696 419.514 783.751 399.423 780.982C382.417 778.51 365.793 773.893 349.948 767.241C289.901 742.166 247.084 682.834 240.253 618.318C238.458 601.363 238.85 583.938 238.826 566.885L238.792 502.035L238.654 432.485C238.578 417.526 238.631 402.408 238.804 387.439C238.821 385.978 239.192 383.665 239.843 382.35C241.391 379.225 243.5 378.226 246.557 377.08ZM688.869 628.385L689.127 627.797C693.037 619.109 698.136 620.658 706.241 620.26C719.003 619.633 733.84 621.32 746.378 619.599C774.924 615.63 799.891 598.348 813.661 573.03C836.363 530.535 819.495 479.038 777.442 456.418C755.191 444.449 735.757 445.175 711.434 445.641C705.443 445.756 694.33 446.755 693.158 438.89C691.131 425.281 692.755 410.889 692.086 397.042C682.237 396.504 669.358 396.881 659.252 396.891L612.343 396.777L494.388 396.857L328.542 396.987L280.088 396.939C273.826 396.9 265.378 396.392 259.411 396.572C258.733 404.147 259.149 417.765 259.151 425.713L259.164 479.235L259.215 559.366C259.259 585.965 257.917 612.325 264.121 638.275C270.077 662.493 281.581 684.995 297.725 704.004C324.205 735.712 366.531 758.848 407.747 762.014C428.653 763.619 456.887 763.077 478.378 762.944C523.33 762.666 556.239 766.954 598.027 746.542C610.132 740.713 621.467 733.405 631.771 724.784C660.612 700.419 681.899 665.614 688.869 628.385Z"/><path fill="#040405" d="M668.099 595.859C668.719 630.491 652.896 669.269 629.064 694.041C601.777 722.403 565.98 739.234 526.298 739.469C497.466 739.64 468.749 739.612 439.927 739.623C431.878 739.638 423.563 739.816 415.525 739.174C382.078 736.676 350.528 722.676 326.235 699.551C299.553 673.737 283.275 634.746 282.979 597.757C282.68 560.414 282.682 522.921 282.569 485.565L282.487 448.533C282.478 441.88 282.326 435.206 282.708 428.566C283.077 422.169 288.386 420.016 294.045 419.965L528.739 420.046L614.108 420.193C628.482 420.218 643.081 419.93 657.441 420.364C660.064 420.472 663.526 420.771 665.288 423.07C670.625 430.03 668.486 447.61 668.333 456.146C667.192 458.008 666.864 512.695 667.396 518.396C667.266 533.872 667.246 549.35 667.337 564.826C667.356 574.347 667.066 586.068 667.535 595.416L668.099 595.859Z"/><path fill="#040405" d="M699.958 469.076C710.426 468.375 723.239 468.874 733.842 468.91C751.718 468.972 770.425 476.788 782.718 490.09C794.08 502.37 800.061 518.682 799.331 535.395C798.439 553.642 790.083 569.646 776.635 581.814C752.786 599.781 733.393 596.501 705.379 596.984C689.546 597.257 692.157 584.607 692.226 573.077L692.35 548.255C692.381 525.216 691.631 498.398 692.659 475.642C695.167 471.767 695.736 471.061 699.958 469.076ZM712.232 576.981C731.897 578.124 750.174 578.914 765.493 565.212L766.067 564.69C783.708 546.575 784.673 519.462 766.187 501.116C751.911 486.949 731.755 487.871 712.955 488.587L712.461 488.61C711.628 497.807 712.052 516.31 712.137 526.512C712.27 542.403 711.503 561.357 712.232 576.981Z"/><path fill="#040405" fill-opacity="0.95294118" d="M667.396 518.396L668.5 518.42C668.499 527.288 669.256 592.505 668.099 595.859L667.535 595.416C667.066 586.068 667.356 574.347 667.337 564.826C667.246 549.35 667.266 533.872 667.396 518.396Z"/><path fill="#040405" fill-opacity="0.96470588" d="M667.396 518.396C666.864 512.695 667.192 458.008 668.333 456.146C668.543 476.903 668.598 497.662 668.5 518.42L667.396 518.396Z"/><path fill="#040405" d="M383.124 113.053C387.42 113.162 391.272 114.683 393.09 118.777C396.366 126.152 388.232 132.581 383.863 137.11C381.359 139.717 378.999 142.459 376.793 145.324C361.652 164.896 360.418 196.722 377.585 215.54C387.91 226.86 395.708 232.802 402.402 247.355C410.341 264.929 410.915 284.951 403.996 302.951C399.202 315.757 384.607 338.591 372.248 344.149C370.463 344.254 368.407 344.226 366.711 343.62C364.23 342.717 362.247 340.809 361.249 338.365C357.912 330.153 370.535 321.285 376.341 313.667C379.899 308.919 382.821 303.728 385.035 298.223C388.356 289.883 388.869 283.683 388.882 274.959C388.929 242.315 362.758 237.661 351.655 211.026C343.829 192.251 343.781 169.451 351.416 150.596C356.5 138.039 370.541 118.286 383.124 113.053Z"/><path fill="#040405" d="M485.649 113.569C493.757 113.495 495.212 116.205 497.368 123.311C494.989 131.422 488.776 133.904 482.932 140.553C478.47 145.689 474.861 151.506 472.242 157.784C463.636 178.862 467.708 203.852 484.267 219.876C493.625 228.932 501.334 237.57 506.355 249.786C513.648 267.839 513.442 288.055 505.784 305.956C500.831 317.728 486.111 339.376 474.664 344.028C469.739 343.993 465.131 342.583 463.638 337.151C461.455 329.203 472.285 322.9 476.507 317.319C479.412 313.479 482.617 310.263 484.702 305.751C495.036 289.062 495.177 260.771 481.843 245.46C469.03 230.749 456.838 222.613 451.289 201.677C446.067 181.978 447.808 160.23 458.053 142.114C462.85 133.632 475.96 116.277 485.649 113.569Z"/><path fill="#040405" d="M589.194 113.541C601.125 113.874 602.198 125.728 593.805 132.927C585.814 139.781 579.262 148.985 575.231 158.644C571.736 166.966 570.261 175.998 570.924 185C572.346 206.988 582.34 214.871 596.187 229.732C619.148 254.377 619.789 292.105 601.884 319.768C597.196 327.011 586.559 340.887 578.367 344.153C572.784 344.185 568.876 343.019 567.163 337.096C566.643 335.295 567.099 332.194 568.112 330.626C572.752 323.443 580.187 318.242 584.638 310.765C597.708 290.207 599.277 266.37 584.601 246.158C580.518 240.535 576.03 237.052 571.377 232.119C562.563 222.775 555.854 209.893 553.087 197.406C548.607 177.06 552.513 155.767 563.922 138.336C568.358 131.431 580.919 115.382 589.194 113.541Z"/></svg>