<?xml version="1.0" encoding="utf-8" ?><svg xmlns="http://www.w3.org/2000/svg" xmlns:xlink="http://www.w3.org/1999/xlink" width="1024" height="1024" viewBox="0 0 1024 1024"><path fill="#252424" d="M495.268 272.772L499.959 272.596C566.701 270.335 636.803 286.494 686.42 333.579C733.171 377.659 750.9 436.685 753.964 499.234C760.972 642.3 675.591 747.315 528.234 752.051C465.222 755.935 391.914 738.857 343.95 696.344C294.375 652.403 275.132 593.518 271.341 528.986C267.813 468.944 282.962 395.399 323.331 349.112C369.071 296.668 427.866 277.354 495.268 272.772ZM618.043 405.633C622.686 425.483 626.79 443.048 629.312 463.458C631.075 477.719 631.658 489.973 632.576 504.123L654.75 504.078L724.913 503.988C723.38 467.821 716.588 431.425 699.563 399.145C697.248 394.756 693.818 387.792 690.542 384.277C689.458 383.822 689.894 383.837 688.818 383.972C662.766 395.847 644.745 399.244 618.043 405.633ZM300.493 519.447C301.055 554.707 311.67 611.999 334.279 640.003C350.361 633.626 362.652 629.279 379.365 624.699C387.873 622.42 396.922 619.858 405.539 618.232C397.411 585.933 393.033 552.805 392.491 519.504C384.258 518.717 369.348 519.105 360.73 519.147C345.09 519.225 328.436 518.708 312.929 519.235C308.783 519.273 304.638 519.344 300.493 519.447ZM300.481 503.986C324.64 504.171 348.799 504.223 372.959 504.141C379.329 504.169 386.117 504.383 392.413 504.345C394.016 472.435 398.56 435.966 406.464 405.301C395.643 402.673 385.149 400.6 374.345 397.649C360.389 393.837 347.885 389.262 334.491 383.871C314.665 414.68 299.007 467.465 300.481 503.986ZM499.596 621.218C476.662 622.034 445.704 623.526 423.461 628.732C430.266 652.081 442.017 676.549 457.827 695.032C472.313 711.1 483.549 719.56 505.248 722.739C506.354 707.313 505.494 686.024 505.536 670.143L505.633 637.641C505.644 632.866 505.894 625.731 505.559 621.218L499.596 621.218ZM519.171 722.539C540.749 720.017 556.788 708.569 569.656 691.25C582.987 674.845 594.914 649.034 601.44 628.76C575.45 623.724 546.071 621.379 519.443 621.149C518.466 629.315 518.85 653.465 519.041 662.803C519.438 682.282 518.646 703.356 519.171 722.539ZM424.56 394.38C428.013 395.149 430.714 395.637 434.215 396.154C458.243 400.29 481.06 401.68 505.393 402.151C505.621 399.157 505.956 386.306 505.683 383.969C504.571 374.435 507.484 306.088 505.165 302.476C503.861 301.963 503.732 302.106 502.295 302.208C463.411 308.237 440.594 350.329 428.198 383.875C426.95 387.253 425.471 390.922 424.56 394.38ZM593.124 395.935C595.398 395.618 597.966 395.323 600.189 394.855C597.491 377.242 580.611 347.402 569.702 333.099C558.579 318.515 538.479 302.711 519.397 302.049C519.052 305.366 519.095 308.415 519.115 311.745C519.296 341.902 518.974 371.995 519.48 402.155C540.418 401.872 560.536 400.632 581.279 397.632C585.077 397.083 589.35 396.317 593.124 395.935ZM618.429 519.43C605.354 518.991 589.123 519.018 575.902 519.25C557.967 519.394 536.562 518.751 518.99 519.42L519.096 580.179C519.107 588.049 518.743 599.834 519.162 607.414C528.879 607.563 538.591 607.929 548.292 608.513C554.671 608.96 562.073 609.893 568.299 610.15C580.39 611.89 593.51 614.066 605.545 615.526C614.625 580.021 617.288 555.717 618.429 519.43ZM562.668 718.421C581.335 715.541 598.662 709.836 615.981 702.49C640.502 691.864 667.139 672.98 682.319 650.777C670.314 644.168 629.078 634.006 614.662 631.34C606.176 656.38 594.41 682.42 577.552 703.009C573.083 708.468 567.678 713.419 562.668 718.421ZM603.194 408.159C573.972 412.983 548.467 414.917 519.078 416.041C519.315 445.154 518.615 475.1 519.032 503.986C524.4 504.531 530.276 504.108 535.749 504.212L590.421 504.336C598.588 504.331 610.284 504.653 618.266 504.097C618.551 496.217 617.617 487.367 617.039 479.509C615.577 459.616 612.826 440.021 608.318 420.58C607.699 417.914 606.312 410.325 605.265 408.287C603.99 407.964 604.401 407.964 603.194 408.159ZM455.848 307.613C447.544 308.989 438.588 311.728 430.533 314.262C401.655 323.349 373.94 338.99 353.023 361.069C349.707 364.569 345.359 368.759 342.734 372.693C348.542 375.129 354.452 377.214 360.37 379.364C371.925 383.225 382.942 386.055 394.866 388.542C399.708 389.553 406.149 391.34 410.918 391.922C416.593 372.971 427.039 350.323 437.923 333.857C442.025 327.621 446.579 321.694 451.548 316.123C453.157 314.296 457.885 309.829 458.439 308.04C457.399 307.103 457.962 307.505 455.848 307.613ZM724.973 519.419L664.509 519.314C655.474 519.302 641.168 518.74 632.575 519.203C631.866 526.411 632.063 533.731 631.534 540.95C629.614 567.117 625.797 592.956 618.592 618.242C644.923 623.608 665.463 629.535 690.539 639.749C693.229 635.425 696.35 630.661 698.684 626.187C717.63 589.148 722.375 560.956 724.973 519.419ZM342.261 650.525C344.884 655.287 348.887 659.585 352.62 663.533C368.794 680.424 388.232 693.853 409.754 703.004C424.983 709.425 444.904 715.542 461.317 717.901C443.473 700.567 431.321 683.148 420.986 660.468C419.213 656.577 409.908 632.346 408.903 631.642L408.527 631.648C393.929 633.679 355.387 644.823 342.261 650.525ZM420.31 407.935C412.876 430.471 406.986 479.528 407.221 504.03C435.495 504.084 465.568 504.779 493.625 504.132C497.358 504.119 501.844 504.222 505.514 504.005C506.711 491.608 505.556 469.443 505.649 456.221C505.718 446.268 506.127 424.773 505.261 415.581C487.782 415.349 471.489 414.552 454.092 412.776C442.955 411.639 431.097 408.999 420.31 407.935ZM562.941 306.391C587.92 331.208 603.563 358.74 613.932 392.337C627.14 390.665 655.603 382.59 668.379 378.543C673.197 376.698 677.098 375.229 681.669 372.724C659.137 338.67 607.904 315.266 568.998 307.455C566.987 307.057 564.967 306.703 562.941 306.391ZM495.221 519.272L437.45 519.378C427.881 519.385 416.74 519.116 407.365 519.566C406.433 543.699 412.269 591.592 419.16 614.365L419.839 615.298C423.275 615.266 429.673 614.007 433.356 613.403C440.575 612.154 447.835 611.147 455.121 610.386C465.286 609.401 475.47 608.633 485.667 608.08C491.694 607.81 499.916 607.886 505.672 607.248C505.935 601.042 505.914 594.332 505.73 588.092C505.057 565.282 506.443 542.002 505.31 519.241C501.926 519.17 498.598 519.036 495.221 519.272Z"/></svg>