<?xml version="1.0" encoding="utf-8" ?><svg xmlns="http://www.w3.org/2000/svg" xmlns:xlink="http://www.w3.org/1999/xlink" width="1024" height="1024" viewBox="0 0 1024 1024"><path fill="#0D0D0E" d="M508.472 319.183C531.952 317.935 541.256 330.388 558.478 344.093L600.104 376.692L697.249 452.217C719.015 469.019 740.886 485.69 762.345 502.887C765.3 504.989 766.074 506.479 767.341 509.647C770.547 517.666 759.227 525.79 752.926 521.399C735.318 509.13 718.68 494.889 701.624 481.835L567.723 377.954C552.641 366.161 537.844 353.923 522.353 342.669C521.325 341.922 518.386 341.027 517.088 340.617C513.045 339.964 507.528 339.874 504.07 342.243C488.083 353.195 472.75 366.517 457.398 378.276L312.157 491.376C305.557 496.543 276.479 520.759 270.727 522.21C268.043 522.887 265.146 522.15 262.813 520.745C260.51 519.359 259.006 517.251 258.45 514.62C257.735 511.235 258.637 507.987 260.643 505.221C263.64 501.09 280.316 489.32 285.578 485.234L344.404 439.487L450.597 356.851C464.261 346.36 477.777 335.175 491.628 324.972C495.928 321.803 503.215 319.967 508.472 319.183Z"/><path fill="#0D0D0E" d="M329.335 503.937C331.446 505.859 328.381 598.774 330.344 610.292C331.232 615.502 333.892 620.712 337.361 624.654C342.718 630.741 350.331 634.15 358.371 634.638C365.79 635.089 373.332 634.872 380.764 634.891L421.001 634.903L538.899 634.849L626.261 634.976C638.436 634.977 650.623 634.96 662.787 634.894C673.155 634.838 678.473 633.367 686.335 626.753C699.609 615.585 696.263 595.075 696.196 579.353L696.089 532.963C696.071 523.505 695.83 512.893 696.274 503.519C702.624 508.044 710.477 514.941 716.953 520.01C717.321 528.007 717 537.52 716.917 545.633C716.825 558.493 716.827 571.354 716.925 584.214C717.08 608.75 718.611 628.504 696.949 645.067C681.273 657.052 667.825 655.703 649.277 655.698L612.351 655.686L491.313 655.705L398.86 655.69C384.227 655.715 365.718 656.288 351.604 655.127C338.519 653.163 326.494 645.314 318.945 634.914C308.007 619.843 308.895 606.373 308.911 588.821L308.929 556.881C308.901 549.722 308.284 525.559 309.163 519.899C313.508 515.382 323.966 507.659 329.335 503.937Z"/><path fill="#0D0D0E" d="M506.848 435.203C521.378 433.465 544.128 437.79 555.95 446.757C570.825 458.041 565.134 472.835 550.198 479.985C539.464 485.123 531.079 486.944 519.122 487.79C502.452 488.352 483.173 486.525 470.085 476.437C447.311 458.883 471.521 441.809 489.643 438.084C496.233 436.729 500.37 435.831 506.848 435.203Z"/></svg>