<?xml version="1.0" encoding="utf-8" ?><svg xmlns="http://www.w3.org/2000/svg" xmlns:xlink="http://www.w3.org/1999/xlink" width="1024" height="1024" viewBox="0 0 1024 1024"><path fill="#252424" d="M508.082 318.11C515.971 317.675 521.091 318.155 527.557 323.337C540.667 333.844 540.796 352.746 527.459 363.216C525.375 364.852 523.135 365.739 521.478 367.789L521.607 368.642C524.473 369.728 553.643 369.625 558.961 369.601L621.844 369.377C635.111 369.246 663.116 368.911 676.195 370.488L676.924 370.58C702.039 420.11 725.356 471.877 749.789 521.766C757.157 521.935 766.441 520.009 772.549 524.969C786.572 536.355 771.732 557.623 763.291 567.471C743.968 589.818 716.516 603.517 687.041 605.521C645.726 608.592 605.455 590.892 583.318 555.177C577.937 546.495 572.087 535.949 580.894 526.204C585.781 520.798 594.616 521.462 601.471 521.527C608.417 506.39 616.569 490.418 623.898 475.378L650.176 420.697L661.924 396.51C664.675 390.968 668.072 384.651 670.361 379.053C667.286 379.512 664.152 380.284 661.192 381.216C650.256 384.658 639.441 387.476 628.248 389.999C594.724 397.823 560.43 401.878 526.005 402.089C526.215 409.681 526.937 416.632 527.363 424.162L531.219 484.731L538.152 602.451C539.694 627.618 541.558 653.064 542.505 678.251C543.043 692.545 531.066 703.018 517.95 706.32C515.485 706.596 512.689 706.761 510.2 706.587C501.919 706.077 494.188 702.267 488.738 696.011C485.659 692.43 482.118 686.269 481.904 681.635C481.301 668.607 482.651 654.043 483.458 641.031L487.526 573.978C491.24 516.965 493.494 459.645 497.772 402.592C489.325 401.679 480.138 402.025 471.505 401.328C440.72 398.842 410.462 394.27 380.605 386.268C376.395 385.139 358.437 379.717 355.238 380.199C355.436 384.734 414.681 503.835 422.576 521.682C429.225 522.01 435.966 520.936 441.97 524.789C448.788 529.164 449.465 539.536 446.566 546.418C444.552 551.201 441.187 556.399 438.094 560.604C420.739 584.348 394.593 600.148 365.503 604.474C322.45 610.895 280.056 595.029 255.298 558.671C248.98 549.393 241.471 537.728 249.922 526.978C255.83 519.462 265.255 522.275 273.363 521.486L274.048 521.413C287.979 494.163 300.98 465.966 314.51 438.441L334.981 396.214C338.806 388.336 343.908 378.634 347.2 370.684C377.216 368.477 407.557 370.155 437.351 369.513C447.628 369.291 499.549 370.432 504.091 368.676C503.513 363.94 490.874 363.457 487.919 348.17C486.643 341.207 488.183 334.023 492.201 328.196C496.16 322.474 501.381 319.428 508.082 318.11ZM607.589 521.076C613.887 522.022 626.816 521.807 633.636 521.818L676.75 521.805C699.321 521.893 721.893 521.788 744.463 521.491C737.655 507.047 678.652 384.978 675.971 382.708C674.369 383.481 673.96 384.164 673.146 385.827C668.96 394.376 664.957 403.099 660.8 411.659C651.585 430.255 642.484 448.907 633.498 467.615L616.604 502.242C614.011 507.543 609.68 515.778 607.589 521.076ZM279.987 521.219C287.535 521.804 297.584 521.594 305.346 521.632L349.25 521.805C371.67 521.818 394.09 521.619 416.506 521.207C414.549 515.908 411.333 509.763 408.839 504.599L394.97 475.897L371.483 427.723C364.482 413.192 357.385 398.708 350.352 384.193C349.799 383.051 349.393 382.923 348.244 382.595C344.804 388.014 340.002 398.174 337.08 404.157L317.855 443.972L291.432 498.051C288.465 504.14 282.306 515.496 279.987 521.219ZM486.111 676.467C486.026 677.971 486.193 679.13 486.328 680.631L487.519 680.45C487.457 677.049 487.531 673.61 487.425 670.25C488.02 659.549 488.312 648.053 489.263 637.438C489.598 635.86 489.585 633.281 489.407 631.649L490.173 619.379C490.544 618.454 490.476 618.053 490.545 617.033L489.4 616.658C489 619.202 489.024 619.676 489.052 622.277C488.989 623.334 488.907 624.39 488.805 625.445C488.587 627.292 488.23 633.504 488.152 635.697C487.382 645.968 485.901 666.652 486.111 676.467ZM492.938 554.365C492.425 557.192 492.465 559.307 492.494 562.19C492.438 563.267 492.36 564.184 492.242 565.263L493.232 567.394C493.491 565.309 493.5 563.636 493.5 561.548C493.517 560.547 493.54 559.546 493.569 558.546C494.112 555.313 494.048 551.538 494.191 548.169C493.75 548.755 493.391 549.198 493.025 549.835C493.003 550.896 492.997 551.186 493.128 552.22C493.074 552.936 493.01 553.651 492.938 554.365ZM494.295 351.177L495.241 350.506C494.901 349.72 494.616 348.911 494.388 348.085C493.84 346.102 493.624 344.041 493.75 341.988C493.813 340.972 493.958 339.964 494.185 338.973C493.961 338.295 493.745 337.614 493.537 336.93C492.967 339.16 492.801 340.219 492.652 342.513C492.501 344.925 492.573 345.328 493.161 347.683C493.553 349.225 493.707 349.706 494.295 351.177ZM521.967 327.226L522.711 326.962C521.339 325.566 521.03 325.577 519.225 324.744C518.868 324.443 518.524 324.131 518.139 323.869L517.031 325.134C517.659 325.298 518.277 325.495 518.884 325.725C519.956 326.129 520.988 326.632 521.967 327.226ZM498.926 328.75C498.069 329.582 497.457 330.23 496.677 331.135L497.662 331.671C498.115 331.092 498.601 330.541 499.119 330.019L498.926 328.75ZM272.564 570.794C272.792 571.101 272.889 571.322 273.204 571.478C272.987 571.102 272.926 571.1 272.564 570.794ZM525.831 484.648C525.951 487.985 526.478 500.359 526.937 503.151L527.981 503.07C527.722 500.547 527.027 488.951 527.119 486.486C527.023 484.611 526.984 484.163 526.573 482.346L526.493 481.562L525.478 481.587C525.54 482.89 525.504 483.416 525.831 484.648ZM770.484 531.319C769.995 530.73 769.497 530.148 768.991 529.573L768.354 530.59C768.737 530.957 769.125 531.32 769.517 531.677L770.484 531.319ZM520.752 401.882C520.803 400.542 520.864 400.598 521.506 399.366C522.891 396.698 527.744 398.017 531.175 397.587C527.794 397.44 525.232 398.08 522.618 396.643C519.418 396.307 520.062 399.352 520.752 401.882ZM500.584 425.084L501.734 425.371C501.984 423.344 502.27 417.505 502.38 415.089L501.227 414.695C500.992 416.585 500.648 423.037 500.584 425.084Z"/><path fill="#060605" d="M364.503 376.609L361.875 375.71L361.745 375.135C364.811 374.417 382.038 374.788 386.502 374.796L438.083 374.674L588.251 374.724L640.587 374.791C648.977 374.778 657.062 374.401 665.497 374.572C627.172 388.473 571.662 396.644 531.175 397.587C527.794 397.44 525.232 398.08 522.618 396.643C519.418 396.307 520.062 399.352 520.752 401.882C520.803 400.542 520.864 400.598 521.506 399.366C522.62 403.033 522.949 421.028 523.291 426.516L525.669 463.639C525.952 468.409 526.687 477.038 526.493 481.562L525.478 481.587C525.54 482.89 525.504 483.416 525.831 484.648C525.951 487.985 526.478 500.359 526.937 503.151L527.981 503.07C528.236 507.852 528.587 512.868 528.595 517.638C529.063 518.407 528.95 518.412 528.849 519.359C530.8 547.934 532.524 576.524 534.022 605.126C534.754 617.832 536.443 635.503 536.616 647.686C537.025 648.423 536.914 648.476 536.848 649.372C538.216 669.866 543.506 697.57 513.837 701.392C507.61 702.194 499.909 699.188 495.193 694.987C494.915 694.838 494.944 694.797 494.716 694.473L493.111 693.089C492.639 692.651 492.679 692.646 492.318 692.067C488.782 687.552 488.108 686.091 486.328 680.631L487.519 680.45C487.457 677.049 487.531 673.61 487.425 670.25C488.02 659.549 488.312 648.053 489.263 637.438C489.598 635.86 489.585 633.281 489.407 631.649L490.173 619.379C490.544 618.454 490.476 618.053 490.545 617.033L489.4 616.658C489.449 613.496 489.587 610.264 489.818 607.107C490.836 593.218 491.004 579.119 492.242 565.263L493.232 567.394C493.491 565.309 493.5 563.636 493.5 561.548C493.517 560.547 493.54 559.546 493.569 558.546C494.112 555.313 494.048 551.538 494.191 548.169C493.75 548.755 493.391 549.198 493.025 549.835C495.898 508.273 498.418 466.688 500.584 425.084L501.734 425.371C501.984 423.344 502.27 417.505 502.38 415.089L501.227 414.695C501.68 409.917 501.788 402.974 501.996 398.051C461.787 397.125 424.591 393.163 385.612 382.571C379.621 380.944 370.097 378.681 364.503 376.609Z"/><path fill="#C4C5C7" d="M364.503 376.609L361.875 375.71L361.745 375.135C364.811 374.417 382.038 374.788 386.502 374.796L438.083 374.674L588.251 374.724L640.587 374.791C648.977 374.778 657.062 374.401 665.497 374.572C627.172 388.473 571.662 396.644 531.175 397.587C527.794 397.44 525.232 398.08 522.618 396.643C572.959 395.727 604.668 390.842 652.596 377.286C649.518 375.574 643.136 377.478 637.711 376.142C615.854 375.267 589.284 375.981 567.022 376.01L442.582 376.005C418.436 376.033 392.541 376.567 368.514 375.946C366.819 375.558 366.113 375.906 364.503 376.609Z"/><path fill="#252424" d="M637.711 376.142C641.305 376.08 644.908 376.118 648.5 376.068C650.342 376.043 653.281 375.72 654.967 376.226C656.014 376.54 652.35 377.332 652.596 377.286C649.518 375.574 643.136 377.478 637.711 376.142Z"/><path fill="#C4C5C7" d="M526.937 503.151L527.981 503.07C528.236 507.852 528.587 512.868 528.595 517.638C529.063 518.407 528.95 518.412 528.849 519.359C530.8 547.934 532.524 576.524 534.022 605.126C534.754 617.832 536.443 635.503 536.616 647.686C537.025 648.423 536.914 648.476 536.848 649.372C538.216 669.866 543.506 697.57 513.837 701.392C507.61 702.194 499.909 699.188 495.193 694.987C494.915 694.838 494.944 694.797 494.716 694.473L493.111 693.089C492.639 692.651 492.679 692.646 492.318 692.067C488.782 687.552 488.108 686.091 486.328 680.631L487.519 680.45C488.746 685.115 491.174 689.376 494.562 692.809C499.08 697.439 505.276 700.05 511.745 700.05C523.514 700.075 535.605 691.034 536.485 679.608C537.743 663.279 535.185 644.068 534.224 627.779L529.801 551.97C528.831 535.867 527.569 519.219 526.937 503.151Z"/><path fill="#7F7C81" d="M528.595 517.638C529.063 518.407 528.95 518.412 528.849 519.359C528.256 518.605 528.385 518.543 528.595 517.638Z"/><path fill="#7F7C81" d="M536.616 647.686C537.025 648.423 536.914 648.476 536.848 649.372C536.318 648.652 536.431 648.518 536.616 647.686Z"/><path fill="#ADADB0" d="M364.503 376.609C366.113 375.906 366.819 375.558 368.514 375.946C368.694 376.242 368.874 376.539 369.054 376.835C376.346 378.791 387.673 382.03 394.721 383.747C419.781 389.879 445.327 393.826 471.069 395.543C481.749 396.306 493.079 396.203 503.35 397.066L502.38 415.089L501.227 414.695C501.68 409.917 501.788 402.974 501.996 398.051C461.787 397.125 424.591 393.163 385.612 382.571C379.621 380.944 370.097 378.681 364.503 376.609Z"/><path fill="#C4C5C7" d="M500.584 425.084L501.734 425.371C500.07 456.04 498.172 486.696 496.04 517.336C495.584 523.795 495.219 530.26 494.945 536.73C494.843 538.918 494.586 546.456 494.191 548.169C493.75 548.755 493.391 549.198 493.025 549.835C495.898 508.273 498.418 466.688 500.584 425.084Z"/><path fill="#ADADB0" d="M520.752 401.882C520.803 400.542 520.864 400.598 521.506 399.366C522.62 403.033 522.949 421.028 523.291 426.516L525.669 463.639C525.952 468.409 526.687 477.038 526.493 481.562L525.478 481.587C524.889 456.722 522.235 427.112 520.752 401.882Z"/><path fill="#C4C5C7" d="M489.4 616.658C489.449 613.496 489.587 610.264 489.818 607.107C490.836 593.218 491.004 579.119 492.242 565.263L493.232 567.394C492.401 581.94 490.52 603.131 490.545 617.033L489.4 616.658Z"/><path fill="#060605" d="M596.813 564.577C591.334 558.173 585.289 549.678 582.511 541.94C580.29 535.755 583.869 527.963 590.469 527.245C598.765 526.344 608.469 526.729 616.83 526.716L669.374 526.64L732.096 526.559C742.165 526.547 752.721 526.407 762.795 526.709C764.98 526.775 767.2 528.368 768.991 529.573L768.354 530.59C768.737 530.957 769.125 531.32 769.517 531.677L770.484 531.319C781.09 544.282 751.757 572.679 742.019 579.723C700.877 609.489 644.806 606.538 606.2 573.98C605.918 573.836 605.946 573.795 605.71 573.476C602.859 571.008 599.937 567.837 597.283 565.091C596.993 564.863 597.009 564.885 596.813 564.577Z"/><path fill="#C4C5C7" d="M596.813 564.577C591.334 558.173 585.289 549.678 582.511 541.94C580.29 535.755 583.869 527.963 590.469 527.245C598.765 526.344 608.469 526.729 616.83 526.716L669.374 526.64L732.096 526.559C742.165 526.547 752.721 526.407 762.795 526.709C764.98 526.775 767.2 528.368 768.991 529.573L768.354 530.59C766.453 529.301 765.008 528.193 762.7 528.122C750.504 527.747 737.866 527.976 725.661 528.01L656.136 528.069L612.487 528.078C595.12 528.042 572.618 524.87 587.891 550.274C596.46 564.507 608.5 576.333 622.884 584.645C648.245 599.004 678.226 602.843 706.386 595.338C733.281 587.972 754.914 571.793 768.846 547.582C771.815 542.423 773.668 536.764 769.517 531.677L770.484 531.319C781.09 544.282 751.757 572.679 742.019 579.723C700.877 609.489 644.806 606.538 606.2 573.98C605.918 573.836 605.946 573.795 605.71 573.476C602.859 571.008 599.937 567.837 597.283 565.091C596.993 564.863 597.009 564.885 596.813 564.577Z"/><path fill="#C4C5C7" d="M270.346 568.556C263.415 561.252 244.116 539.455 255.068 529.701C256.808 528.144 259.002 527.187 261.328 526.97C268.635 526.254 282.018 526.654 289.963 526.644L344.39 526.609L400.763 526.61C410.725 526.617 420.806 526.509 430.869 526.924C439.063 527.02 443.698 531.983 442.574 540.283C441.716 546.612 438.233 550.702 434.764 555.69C410.901 590 368.834 605.341 328.087 598.613C307.463 595.349 288.32 585.885 273.204 571.478C272.987 571.102 272.926 571.1 272.564 570.794L271.934 570.251C271.035 569.602 270.884 569.504 270.346 568.556Z"/><path fill="#060605" d="M261.078 528.141C266.008 527.98 270.913 527.982 275.844 527.989C326.704 528.055 377.524 528.05 428.388 528.004C434.954 526.902 442.87 531.697 441.467 539.436C438.988 553.108 422.102 569.333 412.202 577.359C380.432 601.198 337.043 605.989 300.975 589.083C284.68 581.419 270.694 569.596 260.426 554.804C254.676 546.644 246.436 532.525 261.078 528.141Z"/><path fill="#060605" d="M498.926 328.75C500.889 324.822 511.485 321.981 515.502 323.406C516.348 323.706 517.231 323.782 518.139 323.869L517.031 325.134C517.659 325.298 518.277 325.495 518.884 325.725C519.956 326.129 520.988 326.632 521.967 327.226L522.711 326.962C524.966 327.54 528.278 331.023 529.275 332.92C541.43 356.05 509.282 377.34 494.295 351.177L495.241 350.506C494.901 349.72 494.616 348.911 494.388 348.085C493.84 346.102 493.624 344.041 493.75 341.988C493.813 340.972 493.958 339.964 494.185 338.973C493.961 338.295 493.745 337.614 493.537 336.93C494.113 334.949 495.191 332.592 496.677 331.135L497.662 331.671C498.115 331.092 498.601 330.541 499.119 330.019L498.926 328.75Z"/><path fill="#C4C5C7" d="M522.711 326.962C524.966 327.54 528.278 331.023 529.275 332.92C541.43 356.05 509.282 377.34 494.295 351.177L495.241 350.506C498.428 357.881 505.989 362.376 513.99 361.654C521.991 360.931 528.624 355.153 530.438 347.327C532.251 339.5 528.835 331.394 521.967 327.226L522.711 326.962Z"/><path fill="#C4C5C7" d="M498.926 328.75C500.889 324.822 511.485 321.981 515.502 323.406C516.348 323.706 517.231 323.782 518.139 323.869L517.031 325.134C510.617 323.453 503.792 325.314 499.119 330.019L498.926 328.75Z"/><path fill="#D3D5DA" d="M496.677 331.135L497.662 331.671C495.982 333.821 494.795 336.314 494.185 338.973C493.961 338.295 493.745 337.614 493.537 336.93C494.113 334.949 495.191 332.592 496.677 331.135Z"/><path fill="#C4C5C7" fill-opacity="0.98823529" d="M488.152 635.697C489.167 635.771 488.972 636.426 489.263 637.438C488.312 648.053 488.02 659.549 487.425 670.25C486.903 672.747 487.432 674.426 486.111 676.467C485.901 666.652 487.382 645.968 488.152 635.697Z"/><path fill="#ADADB0" fill-opacity="0.88235295" d="M525.831 484.648L526.418 484.433L527.119 486.486C527.027 488.951 527.722 500.547 527.981 503.07L526.937 503.151C526.478 500.359 525.951 487.985 525.831 484.648Z"/><path fill="#D3D5DA" fill-opacity="0.75686276" d="M500.584 425.084C500.648 423.037 500.992 416.585 501.227 414.695L502.38 415.089C502.27 417.505 501.984 423.344 501.734 425.371L500.584 425.084Z"/><path fill="#9E9BA5" fill-opacity="0.67450982" d="M520.752 401.882C520.062 399.352 519.418 396.307 522.618 396.643C525.232 398.08 527.794 397.44 531.175 397.587C527.744 398.017 522.891 396.698 521.506 399.366C520.864 400.598 520.803 400.542 520.752 401.882Z"/><path fill="#C4C5C7" fill-opacity="0.74117649" d="M488.805 625.445C488.912 628.011 488.927 629.144 489.407 631.649C489.585 633.281 489.598 635.86 489.263 637.438C488.972 636.426 489.167 635.771 488.152 635.697C488.23 633.504 488.587 627.292 488.805 625.445Z"/><path fill="#9E9BA5" fill-opacity="0.82745099" d="M486.111 676.467C487.432 674.426 486.903 672.747 487.425 670.25C487.531 673.61 487.457 677.049 487.519 680.45L486.328 680.631C486.193 679.13 486.026 677.971 486.111 676.467Z"/><path fill="#D3D5DA" fill-opacity="0.28235295" d="M489.052 622.277C489.184 621.709 489.564 619.112 489.767 618.806L489.837 618.816C489.949 619.004 490.061 619.191 490.173 619.379L489.407 631.649C488.927 629.144 488.912 628.011 488.805 625.445C488.907 624.39 488.989 623.334 489.052 622.277Z"/><path fill="#D3D5DA" fill-opacity="0.98431373" d="M492.652 342.513C493.402 342.607 493.03 342.647 493.75 341.988C493.624 344.041 493.84 346.102 494.388 348.085L493.161 347.683C492.573 345.328 492.501 344.925 492.652 342.513Z"/><path fill="#D3D5DA" fill-opacity="0.3137255" d="M493.025 549.835C493.391 549.198 493.75 548.755 494.191 548.169C494.048 551.538 494.112 555.313 493.569 558.546C493.427 555.87 493.635 554.853 493.128 552.22C492.997 551.186 493.003 550.896 493.025 549.835Z"/><path fill="#EAEEF0" fill-opacity="0.27843139" d="M493.537 336.93C493.745 337.614 493.961 338.295 494.185 338.973C493.958 339.964 493.813 340.972 493.75 341.988C493.03 342.647 493.402 342.607 492.652 342.513C492.801 340.219 492.967 339.16 493.537 336.93Z"/><path fill="#C4C5C7" fill-opacity="0.43137255" d="M493.001 561.722L493.5 561.548C493.5 563.636 493.491 565.309 493.232 567.394L492.242 565.263C492.36 564.184 492.438 563.267 492.494 562.19L493.001 561.722Z"/><path fill="#ADADB0" fill-opacity="0.71764708" d="M489.4 616.658L490.545 617.033C490.476 618.053 490.544 618.454 490.173 619.379C490.061 619.191 489.949 619.004 489.837 618.816L489.767 618.806C489.564 619.112 489.184 621.709 489.052 622.277C489.024 619.676 489 619.202 489.4 616.658Z"/><path fill="#C4C5C7" fill-opacity="0.039215688" d="M493.128 552.22C493.635 554.853 493.427 555.87 493.569 558.546C493.54 559.546 493.517 560.547 493.5 561.548L493.001 561.722C492.989 559.239 493.017 556.856 492.938 554.365C493.01 553.651 493.074 552.936 493.128 552.22Z"/><path fill="#EAEEF0" fill-opacity="0.30588236" d="M493.161 347.683L494.388 348.085C494.616 348.911 494.901 349.72 495.241 350.506L494.295 351.177C493.707 349.706 493.553 349.225 493.161 347.683Z"/><path fill="#ADADB0" fill-opacity="0.5411765" d="M492.938 554.365C493.017 556.856 492.989 559.239 493.001 561.722L492.494 562.19C492.465 559.307 492.425 557.192 492.938 554.365Z"/><path fill="#D3D5DA" fill-opacity="0.050980393" d="M519.225 324.744C521.03 325.577 521.339 325.566 522.711 326.962L521.967 327.226C520.988 326.632 519.956 326.129 518.884 325.725L519.225 324.744Z"/><path fill="#ADADB0" fill-opacity="0.84705883" d="M526.493 481.562L526.573 482.346L526.418 484.433L525.831 484.648C525.504 483.416 525.54 482.89 525.478 481.587L526.493 481.562Z"/><path fill="#EAEEF0" fill-opacity="0.11764706" d="M498.926 328.75L499.119 330.019C498.601 330.541 498.115 331.092 497.662 331.671L496.677 331.135C497.457 330.23 498.069 329.582 498.926 328.75Z"/><path fill="#C4C5C7" fill-opacity="0.75294119" d="M768.991 529.573C769.497 530.148 769.995 530.73 770.484 531.319L769.517 531.677C769.125 531.32 768.737 530.957 768.354 530.59L768.991 529.573Z"/><path fill="#D3D5DA" fill-opacity="0.34901962" d="M518.139 323.869C518.524 324.131 518.868 324.443 519.225 324.744L518.884 325.725C518.277 325.495 517.659 325.298 517.031 325.134L518.139 323.869Z"/><path fill="#7F7C81" fill-opacity="0.94117647" d="M526.573 482.346C526.984 484.163 527.023 484.611 527.119 486.486L526.418 484.433L526.573 482.346Z"/></svg>