<?xml version="1.0" encoding="utf-8" ?><svg xmlns="http://www.w3.org/2000/svg" xmlns:xlink="http://www.w3.org/1999/xlink" width="1024" height="1024" viewBox="0 0 1024 1024"><path fill="#0B0A0A" d="M291.81 211.212C300.837 210.778 311.497 211.039 320.622 211.042L369.698 211.098L514.435 211.182L661.148 211.07L708.176 211.079C716.712 211.077 726.501 210.83 734.902 211.277C757.422 212.478 780.521 223.833 795.403 240.731C806.755 253.62 814.103 269.783 816.544 286.767C818.558 300.78 817.669 319.059 817.673 333.583L817.842 412.093L817.746 517.399L817.752 551.381C817.76 568.059 818.346 581.735 811.78 597.665C805.193 613.646 795.983 623.405 783.141 634.407C800.44 634.903 817.897 634.428 835.211 634.715C840.783 634.807 845.827 634.519 851.319 635.854C857.914 637.514 863.96 640.872 868.854 645.595C887.922 663.945 880.66 699.104 854.196 706.981C843.936 710.035 822.772 708.623 811.35 708.581L736.75 708.462L355.051 708.467L240.21 708.516L201.671 708.582C194.089 708.575 186.611 708.649 179.034 708.196C149.016 706.402 135.016 669.988 154.744 647.522C159.091 642.479 164.749 638.738 171.092 636.714C180.039 633.933 188.363 635.038 197.484 634.721C211.729 634.225 228.359 635.439 242.309 634.455C223.758 621.98 209.964 597.086 208.258 575.084C207.715 568.069 207.872 560.409 207.879 553.341L207.898 520.573L207.881 412.86L207.83 329.655C207.824 318.929 207.219 294.69 208.678 285.361C211.102 269.498 217.874 254.616 228.242 242.367C244.784 222.671 266.716 213.442 291.81 211.212ZM439.254 653.517C455.417 654.364 476.505 653.748 493.033 653.753L585.38 653.764C586.605 635.78 594.938 634.15 610.868 634.545C618.225 634.727 626.296 634.64 633.688 634.607L711.75 634.503C741.299 634.609 759.757 638.39 782.409 615.689C791.943 606.059 798.49 593.878 801.263 580.614C803.116 571.282 802.612 554.806 802.608 544.819L802.538 492.439L802.702 316.772C802.51 288.061 802.669 268.421 780.199 246.382C769.234 235.675 755.199 228.661 740.054 226.318C730.302 224.837 703.565 225.505 692.608 225.513L601.373 225.512L395.372 225.53C362.326 225.547 328.61 225.199 295.61 225.585C294.1 225.61 292.59 225.653 291.081 225.714C249.123 228.799 219.535 262.895 221.61 304.783C221.95 311.649 221.64 320.135 221.656 327.154L221.586 395.026L221.574 511.708L221.601 549.573C221.671 574.186 220.893 590.449 237.788 610.819C261.418 639.309 286.687 634.568 320.106 634.516L400.941 634.555C406.843 634.567 412.897 634.682 418.788 634.618C429.401 634.503 437.94 637.866 439.054 649.991C439.152 651.165 439.218 652.34 439.254 653.517Z"/></svg>