<?xml version="1.0" encoding="utf-8" ?><svg xmlns="http://www.w3.org/2000/svg" xmlns:xlink="http://www.w3.org/1999/xlink" width="1024" height="1024" viewBox="0 0 1024 1024"><path d="M150.126 680.418C150.094 679.696 150.092 678.993 150.085 678.272L150.044 480.184L150.031 406.816C149.996 375.44 148.466 351.903 155.964 320.971C165.196 283.345 184.315 248.869 211.343 221.112C254.255 177.485 307.104 153.469 368.459 152.969L548.615 152.993L619.43 152.94C653.251 152.915 677.104 151.455 710.37 160.013C747.313 169.721 781.082 188.904 808.337 215.666C839.284 246.031 860.739 284.737 870.089 327.073C872.076 336.143 873.945 344.642 874.024 353.976C873.325 361.102 874.12 369.227 874.267 376.498C874.462 388.806 874.567 401.116 874.582 413.426L874.589 566.031L874.58 595.947C874.557 602.084 874.156 615.209 875.426 620.539C875.559 634.256 875.603 647.974 875.557 661.691C875.566 684.333 875.929 704.524 870.766 726.819C870.47 728.099 869.104 734.513 868.612 735.341C866.32 735.967 864.716 743.409 865.465 745.774C857.19 774.019 838.218 805.141 818.593 826.335C776.226 872.09 719.085 897.584 656.727 898.416C638.665 898.657 620.178 898.486 601.953 898.454L510.195 898.493L421.527 898.514C384.711 898.525 349.481 900.213 313.54 890.86C233.923 870.14 169.185 804.1 154.047 722.696C152.743 715.679 151.17 707.265 150.99 700.109C151.893 697.628 151.703 681.534 150.604 680.771L150.126 680.418ZM160.504 350.418C158.561 352.222 158.605 355.094 158.588 357.861C158.498 372.29 158.011 388.173 158.566 402.51C157.89 426.061 158.5 452.648 158.491 476.429L158.641 609.198C158.769 627.569 158.365 646.14 158.468 664.53C158.553 679.723 157.616 699.954 161.486 714.711L162.288 714.956C163.834 719.864 165.54 729.906 167.123 735.847C171.793 753.163 178.745 769.781 187.797 785.263C213.529 829.829 262.748 866.734 312.543 880.165C327.309 884.195 342.427 886.808 357.689 887.967C373.421 889.088 398.093 888.324 414.523 888.29L515.152 888.261L612.463 888.287C645.904 888.271 678.276 889.729 710.737 880.453C727.405 875.689 744.316 869.415 759.334 860.758C808.786 832.724 844.731 785.808 858.93 730.765C862.738 716.689 865.05 702.251 865.828 687.69C866.253 680.554 866.019 671.679 866.006 664.434L865.972 626.067L865.964 502.658L866.012 410.687C866.018 391.574 866.789 366.369 864.18 347.889C860.261 319.962 851.022 293.046 836.965 268.599C808.081 219.39 760.851 183.655 705.643 169.238C678.454 162.096 657.638 162.417 630.148 162.379L583.711 162.403L471.264 162.407L393.985 162.367C377.455 162.449 358.284 162.1 342.081 164.52C313.935 168.526 286.866 178.089 262.449 192.652C216.917 219.861 183.285 263.201 168.233 314.063C165.509 323.037 163.236 332.205 162.018 341.507C161.712 343.844 161.318 347.49 160.707 349.706L160.504 350.418Z"/><path d="M841.507 731.756C841.403 732.382 840.796 734.496 840.582 735.173C824.723 785.514 792.92 823.439 747.145 848.409C727.271 859.23 705.606 866.371 683.193 869.488C660.713 872.489 639.975 871.607 617.334 871.62L531.943 871.745L419.593 871.695C401.173 871.669 376.219 872.388 358.444 871.213C342.976 870.245 327.662 867.583 312.774 863.275C266.585 849.696 224.239 816.523 200.81 774.278C189.51 753.903 182.094 733.122 178.62 710.03C175.453 688.972 176.423 664.912 176.44 643.393L176.319 560.715L176.436 432.011L176.426 388.868C176.415 363.484 176.97 342.227 184.289 317.497C198.919 268.618 232.338 227.536 277.216 203.263C298.459 191.55 321.727 183.962 345.792 180.901C362.297 178.732 385.773 179.355 402.837 179.359L486.008 179.33L602.054 179.353C637.56 179.363 674.144 176.932 708.517 187.136C758.376 201.654 800.348 235.526 825.068 281.194C836.641 302.631 844.15 326.023 847.218 350.19C849.465 368.297 849.06 390.829 849.102 409.306L849.121 493.415L849.169 617.911C849.175 639.846 849.344 661.96 848.979 683.877C848.829 692.883 847.4 709.97 844.707 718.411C844.265 718.515 843.733 718.549 843.413 718.871C842.539 722.125 840.409 728.828 841.507 731.756ZM688.25 688.298L715.039 688.355C733.957 688.387 750.501 688.97 765.249 674.617C778.212 661.844 779.562 649.032 779.936 632.225C780.736 596.255 776.423 568.367 749.451 542.137C721.507 514.961 695.129 514 659.09 514.049L621.486 513.976C619.747 513.983 615.888 513.982 614.298 514.193C607.753 514.985 601.639 515.89 595.385 517.678C554.743 529.294 522.738 567.508 523.014 610.481C523.093 622.708 522.013 635.332 523.381 647.589C525.183 666.982 543.252 685.055 562.441 687.38C576.155 689.042 591.878 688.284 605.933 688.282L688.25 688.298ZM410.625 688.302L438.388 688.357C457.768 688.377 473.014 689.204 488.07 674.578C505.973 657.322 502.176 635.902 502.498 613.589C503.254 561.259 460.473 516.876 408.456 514.36C387.488 513.345 366.201 514.306 345.19 514.015C343.544 513.992 340.88 514.017 339.264 514.208C309.247 517.209 285.245 528.52 266.541 552.089C249.76 573.234 244.081 598.455 245.552 624.739C245.909 631.118 245.113 637.946 245.813 644.37C247.017 657.71 253.305 669.094 263.759 677.495C270.024 682.559 277.469 685.954 285.401 687.363C294.358 688.982 318.21 688.31 328.515 688.307L410.625 688.302ZM652.752 501.233C695.472 500.476 729.497 465.242 728.764 422.521C728.03 379.8 692.816 345.756 650.095 346.466C607.339 347.176 573.262 382.424 573.996 425.179C574.73 467.933 609.997 501.991 652.752 501.233ZM375.747 501.077C418.521 499.863 452.181 464.149 450.862 421.378C449.543 378.608 413.746 345.036 370.979 346.46C328.36 347.879 294.929 383.524 296.244 426.146C297.558 468.769 333.122 502.287 375.747 501.077Z"/><path d="M763.003 643.633C763.01 646.353 761.642 650.848 760.463 653.364C756.791 661.129 750.181 667.115 742.091 670.001C733.845 672.923 710.704 671.893 700.978 671.889L644.311 671.873L596.884 671.891C587.883 671.892 577.79 672.412 569.145 671.594C543.277 669.146 538.448 650.497 538.66 628.487C537.728 608.466 539.77 588.804 549.966 571.101C562.603 549.159 589.886 532.274 615.196 530.552C623.56 529.982 637.196 530.187 645.837 530.418C660.949 530.823 680.251 528.94 694.873 531.467C704.287 533.187 713.354 536.445 721.709 541.11C735.454 548.737 752.531 566.142 756.826 581.178C755.284 586.659 761.484 603.191 762.213 611.191C762.796 617.581 761.686 640.241 763.003 643.633Z"/><path d="M763.003 643.633C761.686 640.241 762.796 617.581 762.213 611.191C761.484 603.191 755.284 586.659 756.826 581.178C763.551 596.436 763.814 614.03 763.62 630.408C763.578 633.929 763.837 640.497 763.003 643.633Z"/><path d="M482.276 655.12C481.389 657.279 479.714 659.708 478.112 661.392C470.913 668.96 463.981 671.646 453.601 671.799C441.403 671.979 429.288 671.859 417.149 671.852L349.769 671.893L311.713 671.945C297.596 671.965 283.23 673.892 272.155 663.456C265.942 657.609 262.339 649.511 262.155 640.981C261.219 609.702 260.065 582.285 282.757 557.82C311.59 526.735 340.949 530.267 378.922 530.388C411.091 530.491 435.599 529.153 460.897 553.491C471.966 564.139 484.739 586.167 484.997 601.371C482.255 608.444 485.749 637.51 483.138 649.441C482.33 651.611 481.639 652.962 482.276 655.12Z"/><path d="M484.997 601.371C486.748 608.193 486.363 644.545 484.008 651.407L483.138 649.441C485.749 637.51 482.255 608.444 484.997 601.371Z"/><path d="M482.276 655.12C481.639 652.962 482.33 651.611 483.138 649.441L484.008 651.407C483.491 653.158 483.165 653.572 482.276 655.12Z"/><path d="M646.423 362.806C680.163 360.02 709.728 385.22 712.323 418.975C714.918 452.731 689.552 482.153 655.782 484.557C622.281 486.942 593.144 461.821 590.57 428.335C587.996 394.848 612.951 365.569 646.423 362.806Z"/><path d="M370.833 362.666C404.589 361.221 433.103 387.459 434.465 421.219C435.827 454.978 409.519 483.428 375.756 484.707C342.111 485.981 313.781 459.784 312.424 426.142C311.067 392.5 337.194 364.106 370.833 362.666Z"/><path d="M841.507 731.756C840.409 728.828 842.539 722.125 843.413 718.871C843.733 718.549 844.265 718.515 844.707 718.411C844.082 723.015 842.713 727.304 841.507 731.756Z"/><path d="M158.566 402.51C159.137 398.441 158.262 394.47 159.426 390.195C159.783 417.316 159.524 444.984 159.531 472.15L159.399 587.953L159.535 651.282C159.549 671.566 158.809 695.068 162.288 714.956L161.486 714.711C157.616 699.954 158.553 679.723 158.468 664.53C158.365 646.14 158.769 627.569 158.641 609.198L158.491 476.429C158.5 452.648 157.89 426.061 158.566 402.51Z"/><path d="M158.566 402.51C158.011 388.173 158.498 372.29 158.588 357.861C158.605 355.094 158.561 352.222 160.504 350.418C159.598 359.714 159.44 367.47 159.512 376.807C159.537 380.074 159.693 387.145 159.426 390.195C158.262 394.47 159.137 398.441 158.566 402.51Z"/><path d="M874.024 353.976C876.012 366.874 875.53 385.504 875.539 398.834L875.508 463.507L875.523 567.649C875.525 583.61 876.13 604.931 875.426 620.539C874.156 615.209 874.557 602.084 874.58 595.947L874.589 566.031L874.582 413.426C874.567 401.116 874.462 388.806 874.267 376.498C874.12 369.227 873.325 361.102 874.024 353.976Z"/><path d="M150.126 680.418L150.604 680.771C151.703 681.534 151.893 697.628 150.99 700.109C150.289 696.782 150.068 684.187 150.126 680.418Z"/><path d="M865.465 745.774C864.716 743.409 866.32 735.967 868.612 735.341C867.62 739.152 866.632 742.048 865.465 745.774Z"/></svg>