<svg xmlns="http://www.w3.org/2000/svg" height="1024" preserveAspectRatio="none" style="display: block;" version="1.1" viewBox="0 0 2048 2048" width="1024">
<path d="M 1122.33 687.444 C 1151.28 664.066 1186.75 664.479 1216.34 686.414 C 1255.88 654.179 1316.34 673.873 1329.51 723.066 C 1332.1 733.478 1331.75 744.197 1331.88 754.767 C 1332.68 821.932 1330.77 889.536 1332.2 956.663 L 1399.91 957.182 C 1400.51 937.751 1397.63 919.803 1402.53 900.706 C 1408 879.398 1438.19 889.586 1439.15 901.417 C 1441.94 935.493 1440.83 971.399 1441.05 1005.83 C 1441.58 1065.45 1441.67 1125.07 1441.33 1184.69 C 1441.23 1216.45 1441.95 1250.05 1439.43 1281.61 C 1438.52 1293.08 1431.67 1310.18 1426.04 1320.17 C 1411.51 1346.04 1387.04 1364.86 1358.3 1372.26 C 1339.21 1377.35 1313.71 1376.05 1293.44 1376.03 L 1227.53 1375.95 L 1004.8 1375.94 L 809.494 1375.95 L 748.749 1376.03 C 737.254 1376.06 722.235 1376.47 710.965 1375.53 C 694.527 1374.15 678.592 1369.18 664.288 1360.97 C 639.21 1346.41 619.712 1319.17 613.134 1291.3 C 607.068 1265.6 608.99 1226.45 609.024 1198.9 L 609.011 1083.07 L 609.072 963.284 C 609.091 950.813 607.124 906.204 612.117 898.206 C 615.347 893.091 620.538 889.529 626.473 888.358 C 632.712 887.19 637.642 888.924 642.421 892.834 L 642.824 893.987 C 644.984 900.02 647.325 905.904 647.131 912.522 C 647.054 915.134 648.957 915.269 650.131 918.368 L 651.078 956.501 C 672.898 956.316 695.314 956.661 717.178 956.763 C 717.999 939.238 717.604 917.771 717.673 899.932 L 717.888 795.312 C 717.919 777.165 716.927 741.836 719.893 725.361 C 721.611 715.495 725.738 706.207 731.908 698.32 C 743.393 683.254 760.394 673.369 779.169 670.843 C 800.488 668.073 818.491 674.335 835.304 687.266 C 850.284 678.264 862.8 671.667 880.669 670.362 C 899.155 669.085 917.387 675.233 931.324 687.444 C 961.239 664.828 998.266 663.65 1027.63 687.698 C 1052.22 663.188 1096.27 666.627 1122.33 687.444 z M 651.031 1000.01 L 650.492 1187.5 C 650.44 1204.34 650.685 1222.22 650.296 1238.92 C 649.47 1274.35 650.09 1298.88 680.044 1322.21 C 707.448 1338.7 734.8 1334.62 765.85 1334.65 C 795.409 1334.73 824.967 1334.63 854.525 1334.36 L 1086.13 1334.16 L 1244.59 1334.32 C 1269.26 1334.47 1325.49 1337.63 1348.12 1332.26 C 1397.85 1320.45 1399.89 1274.5 1400 1231.92 L 1400.07 1171.27 C 1400.06 1114.85 1400.77 1056.19 1399.73 999.933 L 1386.62 999.491 C 1324.75 1000.57 1260.89 999.836 1198.87 999.832 L 862.828 999.742 L 727.35 999.69 C 703.599 999.66 674.169 998.809 651.031 1000.01 z M 1081.13 956.397 C 1087.31 956.432 1093.59 956.635 1099.72 955.969 C 1101.24 908.637 1099.94 855.637 1100.03 807.705 L 1100.11 758.472 C 1100.14 731.261 1103.33 709.973 1067.01 712.208 C 1050.76 718.615 1046.34 725.834 1046.25 743.379 C 1046.06 779.451 1046.87 815.435 1046.61 851.522 L 1046.08 918.677 C 1045.98 930.034 1045.41 945.573 1046.14 956.547 L 1081.13 956.397 z M 1289.89 956.325 C 1291.2 945.45 1290.92 928.531 1290.98 917.097 L 1291.09 849.92 L 1291.1 781.776 C 1291.1 750.543 1299.06 708.302 1254.48 712.173 C 1247.77 715.459 1240.72 718.595 1237.8 726.069 C 1235.96 730.783 1235.09 939.063 1237.18 955.953 C 1249.46 956.133 1261.74 956.212 1274.03 956.19 C 1279.25 956.306 1284.68 956.534 1289.89 956.325 z M 792.767 956.8 L 813.044 956.693 C 813.673 909.964 813.71 863.229 813.155 816.499 C 813.103 789.218 814.115 753.79 812.755 727.088 C 804.288 712.672 795.531 710.686 779.506 712.211 C 772.21 715.758 761.074 722.555 760.437 730.593 C 758.333 757.117 758.891 796.012 759.226 822.255 C 759.797 867.04 757.991 913.006 759.524 956.776 C 770.604 956.889 781.686 956.897 792.767 956.8 z M 855.416 956 L 882.75 956.212 C 891.246 956.199 900.297 956.347 908.742 956.011 L 908.865 808.419 C 908.854 784.37 909.86 749.808 908.463 726.478 C 900.748 715.204 894.473 711.435 880.792 711.304 C 850.666 715.626 855.154 745.975 855.182 768.346 L 855.195 823.41 L 855.219 910.401 C 855.223 924.074 854.702 942.631 855.416 956 z M 1003.88 955.915 C 1004.61 906.88 1004.8 857.84 1004.44 808.802 C 1004.5 781.782 1005.49 753.856 1003.12 727.052 C 1002.09 715.372 986.121 711.315 976.509 711.702 C 974.715 711.784 972.924 711.93 971.139 712.139 C 954.287 719.562 950.956 725.94 950.954 743.923 C 950.946 807.744 951.386 871.586 950.694 935.405 C 950.618 942.429 949.682 949.611 951.108 956.507 L 985.734 956.51 C 991.827 956.51 997.837 956.674 1003.88 955.915 z M 1194.89 955.953 C 1196.3 887.632 1194.38 818.765 1195.13 750.381 C 1195.35 730.311 1195.84 712.466 1169.84 711.875 C 1167.33 711.818 1164.82 711.898 1162.32 712.116 C 1148.58 717.998 1141.33 726.579 1140.96 742.322 C 1139.93 787.072 1140.6 831.954 1140.81 876.727 L 1140.92 925.187 C 1140.88 934.096 1140.34 947.797 1141.32 956.077 L 1173.5 956.132 L 1194.89 955.953 z" fill="rgb(0,0,0)" transform="translate(0,0)"></path>
<path d="M 642.421 892.834 L 643.584 893.974 C 650.418 900.423 650.125 909.834 650.131 918.368 C 648.957 915.269 647.054 915.134 647.131 912.522 C 647.325 905.904 644.984 900.02 642.824 893.987 L 642.421 892.834 z" fill="rgb(0,0,0)" fill-opacity="0.909804" transform="translate(0,0)"></path>
<metadata><recraft-signature>{"signed_by": "recraft", "signature_b64": "yLR6lNsO3mD+cMeEBpecwkIGVPSnQ+H5yzmhp7fLpnS9X8bFYyjpCRz4DO91xErJmre3yUH4th5XGtwfnnepDg==", "signing_algo": "Ed25519", "generation_timestamp": 1784819102, "identifier": "adfde918-19b6-4000-a8f1-b630ba27c501"}</recraft-signature></metadata></svg>