<?xml version="1.0" encoding="utf-8" ?><svg xmlns="http://www.w3.org/2000/svg" xmlns:xlink="http://www.w3.org/1999/xlink" width="1024" height="1024" viewBox="0 0 1024 1024"><path d="M247.775 391.989C251.111 369.985 264.061 351.468 287.487 347.036C300.701 344.535 319.738 346.117 331.001 354.525C350.725 369.249 351.742 385.324 351.733 408.225L351.709 435.315C351.692 452.512 350.293 465.006 371.913 465.207C397.092 465.441 422.272 465.469 447.453 465.465L577.567 465.491L629.523 465.402C639.022 465.403 651.841 466.167 661.007 464.492C664.98 463.844 671.291 458.96 672.032 454.7C674.539 440.27 672.535 422.52 673.012 407.798C673.498 392.809 672.08 382.98 679.801 369.856C686.197 358.917 696.698 350.986 708.968 347.826C739.023 340.2 770.011 353.554 775.951 386.124C776.339 388.252 776.66 389.949 777.202 392.065C797.344 392.548 817.637 388.904 833.445 404.229C845.878 416.282 849.031 429.269 849.059 446.181C849.11 478.083 849.054 509.998 849.041 541.896L849.013 570.943C848.976 589.769 849.683 603.845 835.646 618.422C819.231 635.469 798.99 632.453 777.367 632.557C776.734 635.677 776.082 639.051 775.308 642.124C772.209 654.571 764.227 665.245 753.164 671.737C741.105 678.714 721.547 679.862 708.619 676.391C691.399 671.736 678.227 657.845 674.493 640.402C671.56 626.768 673.642 603.187 673.062 588.536C672.778 581.377 674.081 574.418 670.03 567.614C668.555 564.839 663.712 560.578 660.485 560.258C650.693 559.285 640.207 559.602 630.348 559.595L567.786 559.59L434.536 559.624L394.591 559.602C386.693 559.574 378.778 559.445 370.882 559.61C360.451 559.828 353.999 564.311 351.98 574.705C351.636 575.231 351.292 575.757 350.948 576.283C350.406 596.162 351.034 616.112 350.499 636.01C350.486 636.509 350.859 637.351 350.951 637.585C350.833 643.992 345.969 653.929 342.033 659.041C334.356 669.105 322.982 675.692 310.432 677.341C292.806 679.524 275.52 677.82 262.533 664.807C253.09 655.346 249.219 645.792 247.74 632.8C225.753 631.211 207.894 637.347 189.982 619.127C176.739 605.656 176.141 594.165 176.086 576.46L176.003 477.033L175.99 449.51C176.009 431.774 176.307 419.866 189.587 406.184C206.064 389.209 226.092 391.97 247.775 391.989ZM265.455 505.193C264.732 501.013 265.652 470.78 264.887 470.211C264.826 470.22 264.765 470.23 264.704 470.239L264.559 470.699L264.552 470.632C264.346 471.998 264.497 483.564 264.497 485.745L264.489 519.033L264.52 592.951L264.478 620.923C264.474 623.798 263.207 637.762 266.362 637.756C270.788 649.951 280.091 659.996 293.929 660.314C305.279 660.575 315.893 660.616 324.724 652.274C335.782 641.826 334.322 627.409 334.405 613.541C334.491 601.169 334.224 589.006 334.457 576.606C334.324 561.189 346.294 543.85 362.454 542.588C377.541 541.409 394.58 541.966 409.988 541.969L501.154 541.99L607.749 542.013L641.256 542C653.905 541.996 664.203 540.405 675.263 548.01C691.006 558.835 690.024 572.245 690.266 589.382C690.368 598.904 690.407 608.427 690.381 617.951C690.409 630.035 689.746 640.147 698.233 650.009C703.835 656.518 711.12 659.943 719.586 660.324C730.764 660.827 740.328 660.896 748.987 652.849C756.601 645.773 759.62 638.042 759.792 627.808C760.085 610.388 759.976 592.832 759.979 575.434L759.881 475.406L759.936 421.203C759.951 411.187 760.368 400.513 759.283 390.662C757.569 375.093 744.21 363.855 728.77 363.756C717.176 363.682 709.402 363.652 700.366 372.078C687.549 384.03 690.149 402.634 690.275 418.496C690.338 428.306 690.302 438.116 690.168 447.926C690 458.024 687.751 466.185 680.185 473.362C674.673 478.541 667.653 481.83 660.145 482.751C653.238 483.647 635.923 483.292 627.933 483.326L562.314 483.432C498.42 483.534 434.51 483.604 370.617 483.089C360.69 483.009 353.584 481.034 346.142 474.614C334.42 464.502 333.925 451.188 334.375 436.844C334.142 425.577 335.519 395.395 333.007 386.257C331.633 381.349 329.058 376.861 325.514 373.198C313.499 360.641 287.241 360.167 275.305 372.273C272.426 375.193 266.446 383.817 266.277 387.713C264.587 426.752 266.147 466.083 265.455 505.193ZM220.875 615.004C229.708 615.142 239.252 615.558 247.985 615.528C248.338 601.267 248.09 586.268 248.078 571.948L248.02 495.589L248.017 440.895C248.015 431.153 248.338 419.327 247.805 409.77C239.282 409.658 229.868 409.55 221.343 409.718C207.687 410.578 195.786 420.947 194.113 434.664C193.166 442.428 193.546 451.13 193.543 458.99L193.555 500.898L193.55 558.657C193.553 568.284 193.409 578.702 193.722 588.171C193.941 594.808 198.695 604.512 203.983 608.642C209.458 612.918 213.846 614.759 220.875 615.004ZM777.505 614.993C792.092 615.458 810.849 617.677 821.865 607.413C822.275 607.034 822.679 606.649 823.077 606.256C833.088 595.668 831.639 585.041 831.619 571.602L831.55 538.916C831.483 506.178 831.599 473.335 831.347 440.587C831.284 432.414 828.789 423.7 822.705 417.844C810.33 405.933 793.018 410.626 777.488 409.724L777.505 614.993Z"/><path d="M264.489 519.033L265.557 518.921L265.596 598.166C265.588 606.578 264.948 631.14 266.362 637.756C263.207 637.762 264.474 623.798 264.478 620.923L264.52 592.951L264.489 519.033Z"/><path d="M264.489 519.033L264.497 485.745C264.497 483.564 264.346 471.998 264.552 470.632L264.559 470.699L264.704 470.239C264.765 470.23 264.826 470.22 264.887 470.211C265.652 470.78 264.732 501.013 265.455 505.193C265.769 508.291 265.563 515.537 265.557 518.921L264.489 519.033Z"/><path d="M350.951 637.585C350.859 637.351 350.486 636.509 350.499 636.01C351.034 616.112 350.406 596.162 350.948 576.283C351.292 575.757 351.636 575.231 351.98 574.705C351.894 583.002 352.604 632.861 350.951 637.585Z"/></svg>