<?xml version="1.0" encoding="utf-8" ?><svg xmlns="http://www.w3.org/2000/svg" xmlns:xlink="http://www.w3.org/1999/xlink" width="1024" height="1024" viewBox="0 0 1024 1024"><path fill="#2B2D48" d="M785.243 166.702C802.519 165.087 822.402 168.672 837.661 176.955C857.072 187.712 871.448 205.701 877.657 227.007C888.853 266.059 870.235 317.508 850.636 351.426C815.525 412.191 757.431 487.727 678.606 480.117C658.859 478.21 643.562 471.26 626.541 461.812C607.972 483.497 585.218 506.014 565.775 527.607C573.475 535.374 587.569 547.33 596.108 554.897L649.709 602.393L802.516 738.898C822.482 757.055 842.614 775.128 862.417 793.468C874.611 804.761 882.15 818.524 882.339 835.542C882.581 851.14 876.533 866.178 865.558 877.265C854.715 888.118 840.01 894.229 824.668 894.257C794.839 894.278 780.771 874.114 762.095 854.183L714.958 803.897L590.798 672.882L534.605 613.439C526.621 605.006 518.433 595.769 510.311 587.608L358.002 753.636L281.932 837.358C269.808 850.648 257.898 864.383 245.452 877.375C234.706 888.593 221.416 894.223 205.83 894.235C190.319 894.291 175.443 888.079 164.579 877.008C145.304 857.734 140.748 825.36 158.586 803.077C167.012 792.551 179.943 782.397 190.083 773.023C208.971 755.243 227.998 737.611 247.163 720.129L371.479 605.959L422.806 558.991C435.028 547.881 448.789 535.934 460.423 524.409C449.464 512.719 436.127 500.756 424.409 489.376C424.293 489.27 424.177 489.164 424.061 489.058L423.473 488.539C417.552 483.25 413.296 489.583 407.719 492.489C387.99 502.767 365.059 504.837 343.6 499.266C330.188 495.813 317.734 489.363 307.175 480.402C297.979 472.634 286.203 458.531 277.742 449.304L227.996 395.519L170.391 333.391C161.136 323.5 149.695 312.294 141.432 301.526C138.926 298.259 138.498 291.77 139.589 287.708C140.91 278.276 156.136 270.372 164.275 275.729C175.808 283.32 189.461 297.246 199.761 306.696L258.049 359.238C274.306 374.177 290.386 389.303 307 403.845C308.556 405.206 310.342 406.661 312.25 405.504C312.096 402.916 304.294 396.08 302.06 393.747C292.479 383.768 282.841 373.844 273.147 363.976L198.562 286.794C188.292 276.186 163.022 259.217 179.568 243.063C184.692 237.991 192.384 236.542 199.002 239.402C202.639 240.965 228.193 264.721 232.635 268.676C254.933 288.522 277.354 308.46 299.607 328.388C314.754 341.951 329.777 356.551 344.905 370.241C346.148 371.366 346.238 371.633 347.565 371.652L348.121 370.486C348.036 367.33 314.384 337.473 309.592 332.388C300.886 323.362 292.538 314.331 283.813 305.284C260.089 280.683 236.729 255.645 212.996 231.09C210.001 227.991 209.295 220.874 210.278 216.692C211.494 211.653 214.724 207.334 219.214 204.743C234.495 196.008 250.144 215.727 260.07 225.353C281.669 246.295 305.218 267.327 327.381 287.558C334.895 294.416 375.757 335.194 381.182 336.617L381.828 336.134C381.596 333.19 370.045 322.039 367.613 319.483L343.612 294.245L282.941 229.879C276.663 223.339 249.946 197.382 247.861 191.589C246.247 187.105 246.659 181.999 248.737 177.74C250.879 173.37 254.665 170.027 259.267 168.444C263.734 166.879 268.652 167.259 272.825 169.491C278.203 172.362 300.757 193.616 306.548 198.792L372.587 257.086L429.152 306.037C436.894 312.805 449.443 323.142 456.088 330.424C464.553 339.66 470.818 350.693 474.411 362.695C481.867 388.133 479.058 415.48 466.588 438.872C468.348 440.929 470.171 443.093 472.293 444.781C484.729 454.68 497.726 470.264 510.754 478.77C520.127 471.797 535.047 457.346 544.17 448.972C554.963 439.065 572.155 424.772 581.588 414.411C555.623 367.054 562.421 316.811 596.954 275.947C639.978 225.033 718.233 173.093 785.243 166.702ZM326.277 405.694L326.196 406.306C325.543 410.93 323.563 414.542 319.758 417.38C316.397 419.929 312.135 420.983 307.973 420.295C300.554 419.017 289.581 407.376 283.847 402.036C275.243 393.955 266.598 385.917 257.913 377.923L187.007 314.143C177.728 305.725 168.276 296.521 158.504 288.816C156.273 287.056 149.939 291.048 155.758 297.305C162.434 304.484 169.306 311.703 176.014 318.858L209.442 354.682L269.148 419.092C278.85 429.468 288.47 439.919 298.008 450.445C304.606 457.694 312.454 467.151 320.098 472.886C331.264 481.264 347.842 487.329 361.791 488.134C371.685 488.781 381.609 487.431 390.971 484.164C395.004 482.763 398.934 481.08 402.731 479.127C424.257 468.265 424.541 469.305 441.453 485.735L459.223 502.769C462.834 506.269 467.424 511.054 471.26 514.11C480.226 507.445 491.553 496.544 499.903 488.624C489.211 478.473 477.438 469.079 466.819 458.828C461.638 453.826 452.07 448.069 452.287 440.299C452.514 432.167 457.778 424.575 460.177 416.906C469.709 389.664 463.466 358.231 443.375 337.373C438.984 332.815 431.002 326.339 425.97 322.005L394.328 294.756C362.106 266.846 330.091 238.698 298.286 210.313L277.921 191.953C274.715 189.065 267.751 181.917 263.904 181.298C261.842 182.888 259.948 185.147 262.24 187.619C265.655 191.302 269.2 194.885 272.659 198.533L295.571 222.742L361.623 292.795L384.449 316.736C390.08 322.703 396.726 327.21 396.3 336.119C395.878 344.947 388.649 352.174 379.685 351.398C372.135 350.745 363.66 341.392 358.168 336.383L336.253 316.306L257.695 243.136C249.917 235.78 242.237 228.228 234.437 220.892C232.107 218.702 228.402 215.641 225.166 217.256C224.339 218.585 223.864 220.432 224.344 221.995C224.972 224.043 318.818 321.326 328.127 330.557C334.782 337.158 356.456 355.437 360.48 361.81C362.985 365.778 363.204 371.125 361.553 375.452C360.114 379.184 357.244 382.187 353.582 383.795C342.109 388.704 333.349 378.458 325.607 371.719C321.048 367.751 316.578 363.603 312.086 359.554L222.558 278.409C214.062 270.787 205.536 263.076 196.95 255.544C194.586 253.471 193.716 252.304 190.526 252.88C188.934 254.167 189.396 253.373 188.981 255.276C190.187 259.596 208.807 277.038 213.144 281.664C239.204 309.597 265.759 337.065 292.796 364.055L313.157 384.885C320.179 392.091 325.99 395.092 326.277 405.694ZM785.864 181.2C727 186.102 648.937 236.409 610.994 280.831C590.739 304.546 577.695 332.965 580.468 364.843C581.436 376.726 584.509 388.341 589.544 399.148C592.618 405.72 600.952 416.238 593.208 423.423C560.768 453.523 527.42 482.764 494.663 512.565L249.921 736.867L194.505 788.14C189.277 793.021 182.96 799.068 177.466 803.753C143.721 832.528 167.518 883.229 210.39 879.877C219.726 879.147 227.949 875.083 234.801 868.326L347.989 744.273C404.188 682.014 460.782 620.114 517.769 558.576L586.015 485.05L607.466 461.844C629.099 438.53 624.638 447.292 650.452 458.241C699.477 478.599 745.957 458.205 780.672 421.744C823.359 376.911 862.978 316.993 866.681 253.479C869.218 209.951 828.345 174.744 785.864 181.2ZM519.995 577.381C535.667 593.201 551.35 610.916 566.885 627.191L722.792 792.101L772.6 844.766C780.706 853.362 790.251 864.212 799.052 871.934C806.945 878.859 822.652 881.325 832.873 878.726C856.144 872.576 873.448 848.842 866.655 824.863C864.707 818.204 861.159 812.123 856.321 807.151C847.172 797.858 836.498 788.922 826.862 780.071C762.298 720.764 696.483 662.793 630.871 604.649L575.768 555.652C572.063 552.404 559.537 540.675 555.691 538.855C543.857 550.958 530.978 564.424 519.995 577.381Z"/></svg>