<?xml version="1.0" encoding="utf-8" ?><svg xmlns="http://www.w3.org/2000/svg" xmlns:xlink="http://www.w3.org/1999/xlink" width="1024" height="1024" viewBox="0 0 1024 1024"><path fill="#C1C0C0" d="M394.383 273.213C427.882 271.074 462.058 282.438 489.186 301.895C496.068 306.831 505.906 316.648 512.604 320.374C516.967 317.428 522.804 311.672 527.213 308.065C537.314 299.802 546.702 294.039 558.452 288.462C596.379 270.391 639.937 268.147 679.52 282.227C720.365 296.969 753.738 327.241 772.381 366.459C788.986 401.601 792.668 441.472 782.78 479.061C779.524 491.177 775.666 499.274 771.493 510.803C788.055 510.345 805.208 510.636 821.782 511.083C828.027 511.252 829.31 519.139 826.009 522.237C821.293 526.663 808.197 523.958 801.997 524.593C788.906 524.644 775.742 524.206 762.57 524.493C746.104 551.236 719.268 573.923 696.986 596.249C668.326 625.499 639.441 654.528 610.335 683.333L580.37 713.206C572.266 721.394 561.66 733.073 552.382 739.296C536.143 749.974 516.321 753.747 497.295 749.781C487.142 747.653 477.606 743.243 469.408 736.887C462.874 731.793 454.472 722.786 448.383 716.682L413.088 681.385L330.842 599.518L299.943 568.664C284.414 553.098 273.738 543.096 261.369 524.529C242.232 523.894 222.744 525.121 203.593 524.324C193.996 523.924 195.135 511.806 201.326 511.145C217.782 509.39 236.82 511.496 253.141 510.472C250.905 505.018 248.168 499.47 246.098 494.093C240.949 480.492 237.787 466.22 236.71 451.717C233.302 406.336 248.253 361.487 278.209 327.227C301.173 301.235 330.049 284.502 363.888 276.581C373.383 274.359 384.67 273.805 394.383 273.213ZM251.072 441.627C251.414 444.867 251.153 450.617 251.714 453.419C251.796 454.114 251.889 454.807 251.992 455.499C252.071 457.664 252.364 459.211 252.625 461.33C252.8 463.232 253.061 465.126 253.405 467.005C253.467 467.338 253.612 467.591 253.763 467.886C253.968 470.079 254.519 473.455 255.274 475.508C256.195 479.654 257.118 482.467 258.586 486.457C259.481 489.137 260.088 491.04 261.333 493.595C261.906 494.733 262.057 495.391 262.546 496.556C262.979 497.54 263.239 498.152 263.786 499.082C265.338 503.514 266.782 506.006 268.81 510.12C275.803 509.802 282.91 510.771 290.184 510.477C283.66 498.543 279.126 488.596 274.681 475.674C274.458 474.874 274.301 474.196 274.126 473.388C273.817 472.163 273.44 470.956 273.143 469.725L272.918 468.756C272.659 467.667 272.548 467.163 272.374 466.077C272.019 464.389 271.613 462.732 271.259 461.041C271.222 460.466 271.201 460.156 271.108 459.592L271.005 459.11C270.563 457.142 270.226 451.98 269.688 450.648C266.821 411.65 276.701 378.99 302.436 348.913C324.573 323.043 358.324 307.491 392.185 305.327C426.799 303.149 460.875 314.718 487.009 337.519C496.209 345.613 505.048 356.129 512.324 366.064C519.183 357.384 526.837 347.47 534.873 339.864C579.979 297.17 655.627 293.154 704.396 332.24C732.678 354.556 750.784 387.319 754.63 423.139C757.837 453.267 750.585 485.316 733.67 510.555C741.126 510.544 748.583 510.423 756.036 510.19C766.752 487.292 772.561 471.7 774.009 445.914C778.916 362.563 715.738 291.433 632.227 287.057C595.171 285.115 558.566 299.556 530.683 323.451C524.371 328.86 518.684 335.388 512.528 341.11C508.277 337.386 503.617 332.564 499.61 328.615C455.956 285.597 390.484 275.003 335.113 301.638C301.978 317.577 273.461 346.605 260.762 381.964C257.719 388.801 255.185 398.287 253.814 405.602C252.779 410.708 254.417 412.885 252.628 418.624C250.44 425.64 250.762 434.338 251.072 441.627ZM546.979 726.104C547.611 725.684 548.22 725.228 548.833 724.78C549.585 724.168 550.231 723.656 551.007 723.073C552.164 722.091 554.774 719.741 555.643 718.589C557.985 716.57 560.063 714.327 562.244 712.473C565.796 709.566 570.509 704.364 573.865 701.026C576.523 698.383 581.753 693.706 584.053 690.881L691.356 583.374C711.825 562.649 728.724 548.009 747.015 524.495C743.068 524.453 725.446 523.848 723.403 525.154C697.046 552.869 670.4 578.948 643.346 605.924C616.076 633.114 588.921 661.39 561.089 687.99C555.679 692.575 547.239 702.255 541.393 707.829C540.908 708.277 540.466 708.705 539.994 709.166C538.797 709.917 537.246 711.18 536.097 712.057L535.726 712.234C535.267 712.561 534.764 712.894 534.348 713.268C524.188 718.428 516.152 719.571 504.826 718.088C488.988 716.013 480.785 705.71 470.066 695.099C461.825 686.945 453.64 678.734 445.511 670.469L379.027 603.845L328.458 553.506C321.165 546.236 306.846 532.683 301.052 524.763C294.376 524.567 285.315 524.139 278.714 524.448C287.205 537.675 304.354 554.205 315.729 565.631L367.991 617.746C391.471 641.744 415.235 665.462 439.277 688.897C447.315 696.838 455.427 704.762 463.408 712.753C474.001 723.357 484.447 732.774 499.549 736.087C514.729 739.553 530.666 736.747 543.749 728.303C544.843 727.597 545.92 726.863 546.979 726.104Z"/><path fill="#020202" d="M269.688 450.648C266.821 411.65 276.701 378.99 302.436 348.913C324.573 323.043 358.324 307.491 392.185 305.327C426.799 303.149 460.875 314.718 487.009 337.519C496.209 345.613 505.048 356.129 512.324 366.064C519.183 357.384 526.837 347.47 534.873 339.864C579.979 297.17 655.627 293.154 704.396 332.24C732.678 354.556 750.784 387.319 754.63 423.139C757.837 453.267 750.585 485.316 733.67 510.555C715.765 510.954 696.764 510.689 678.747 510.727C642.107 510.907 605.467 510.884 568.828 510.658C563.161 501.721 557.574 492.735 552.065 483.7C549.573 479.562 543.534 467.411 539.725 465.434C531.734 461.286 529.149 473.231 526.999 478.715C524.209 485.642 521.487 492.597 518.834 499.579C510.912 520.635 503.049 542.353 494.285 563.063C493.273 556.33 490.263 544.854 488.751 537.856C484.918 519.571 480.947 501.314 476.837 483.089C473.585 468.243 470.419 453.378 467.338 438.495C465.534 429.895 463.779 421.421 461.705 412.78C460.942 408.003 457.558 405.453 452.802 406.891C450.325 407.644 449.166 409.253 448.087 411.525C444.286 419.532 441.136 427.909 437.419 435.955C426.024 460.617 415.867 485.863 404.424 510.502L290.184 510.477C283.66 498.543 279.126 488.596 274.681 475.674C274.458 474.874 274.301 474.196 274.126 473.388C273.817 472.163 273.44 470.956 273.143 469.725L272.918 468.756C272.659 467.667 272.548 467.163 272.374 466.077C272.019 464.389 271.613 462.732 271.259 461.041C271.222 460.466 271.201 460.156 271.108 459.592L271.005 459.11C270.563 457.142 270.226 451.98 269.688 450.648Z"/><path fill="#020202" d="M452.714 437.149C455.388 454.525 460.009 471.488 463.68 488.656C470.154 518.933 476.689 549.187 483.617 579.364C484.446 582.975 485.21 586.535 485.8 590.197C488.098 592.599 494.421 597.237 496.987 592.773C502.158 583.776 505.907 572.459 509.663 562.648L527.877 515.626C530.942 507.634 534.799 496.282 538.351 488.738L538.76 489.281C543.468 495.613 557.013 522.926 562.733 524.181C566.138 524.928 588.234 524.41 592.908 524.577C604.887 525.005 719.885 523.635 723.403 525.154C697.046 552.869 670.4 578.948 643.346 605.924C616.076 633.114 588.921 661.39 561.089 687.99C555.679 692.575 547.239 702.255 541.393 707.829C540.908 708.277 540.466 708.705 539.994 709.166C538.797 709.917 537.246 711.18 536.097 712.057L535.726 712.234C535.267 712.561 534.764 712.894 534.348 713.268C524.188 718.428 516.152 719.571 504.826 718.088C488.988 716.013 480.785 705.71 470.066 695.099C461.825 686.945 453.64 678.734 445.511 670.469L379.027 603.845L328.458 553.506C321.165 546.236 306.846 532.683 301.052 524.763C309.003 523.706 322.662 524.475 330.906 524.511L386.705 524.604C390.901 524.617 395.807 524.585 399.881 524.641C411.75 524.803 412.905 525.839 418.009 514.333C421.514 506.433 425.212 498.16 428.759 490.156C436.503 472.379 444.488 454.708 452.714 437.149Z"/><defs><linearGradient id="gradient_0" gradientUnits="userSpaceOnUse" x1="477.23056" y1="531.3999" x2="577.20856" y2="260.3728"><stop offset="0" stop-color="white" stop-opacity="0.90196079"/><stop offset="1" stop-color="white"/></linearGradient></defs><path fill="url(#gradient_0)" d="M260.762 381.964C273.461 346.605 301.978 317.577 335.113 301.638C390.484 275.003 455.956 285.597 499.61 328.615C503.617 332.564 508.277 337.386 512.528 341.11C518.684 335.388 524.371 328.86 530.683 323.451C558.566 299.556 595.171 285.115 632.227 287.057C715.738 291.433 778.916 362.563 774.009 445.914C772.561 471.7 766.752 487.292 756.036 510.19C748.583 510.423 741.126 510.544 733.67 510.555C750.585 485.316 757.837 453.267 754.63 423.139C750.784 387.319 732.678 354.556 704.396 332.24C655.627 293.154 579.979 297.17 534.873 339.864C526.837 347.47 519.183 357.384 512.324 366.064C505.048 356.129 496.209 345.613 487.009 337.519C460.875 314.718 426.799 303.149 392.185 305.327C358.324 307.491 324.573 323.043 302.436 348.913C276.701 378.99 266.821 411.65 269.688 450.648C269.563 451.027 269.431 451.418 269.305 451.788L269.274 451.796C267.387 449.873 266.603 428.603 265.256 427.383L265.112 427.49C264.962 428.231 265.076 428.967 264.895 429.648C261.105 430.779 261.781 429.982 259.734 434.215C258.63 436.498 257.09 438.383 255.97 440.834C255.62 440.952 255.082 441.078 254.813 441.306C254.673 441.769 254.883 442.649 254.717 442.935C253.627 442.352 254.412 433.133 253.428 432.68L253.415 432.712L252.941 432.941C251.677 437.35 252.682 443.481 252.756 448.326C252.753 447.935 252.748 446.857 252.563 446.517C251.223 444.063 252.625 430.795 251.821 429.352C251.515 430.072 251.28 439.888 251.072 441.627C250.762 434.338 250.44 425.64 252.628 418.624C254.417 412.885 252.779 410.708 253.814 405.602C256.902 403.129 257.276 401.472 256.913 397.502C256.741 395.613 259.258 386.74 260.221 385.82C260.265 385.826 260.31 385.832 260.355 385.837C260.446 386.14 260.512 386.516 260.811 386.686C261.318 386.675 260.807 382.322 260.762 381.964ZM738.945 506.729C739.059 506.555 739.257 506.21 739.303 506.073C739.158 506.005 739.074 506.061 738.746 506.133C738.613 506.29 738.244 506.636 738.18 506.898C738.36 506.959 738.57 506.846 738.945 506.729Z"/><path fill="#FDFDFD" fill-opacity="0.87843138" d="M738.746 506.133C739.074 506.061 739.158 506.005 739.303 506.073C739.257 506.21 739.059 506.555 738.945 506.729C738.57 506.846 738.36 506.959 738.18 506.898C738.244 506.636 738.613 506.29 738.746 506.133Z"/><path fill="#FDFDFD" fill-opacity="0.97647059" d="M723.403 525.154C725.446 523.848 743.068 524.453 747.015 524.495C728.724 548.009 711.825 562.649 691.356 583.374L584.053 690.881C584.306 688.294 585.066 688.496 585.235 687.58C584.776 687.314 583.417 687.883 583.75 686.773C585.648 687.024 584.469 683.808 582.532 686.294C581.708 687.351 578.601 688.786 578.319 690.518C579.188 694.59 578.965 692.471 576.945 695.713C576.782 695.972 576.527 696.308 576.27 696.405C575.972 696.061 577.349 692.978 575.615 692.697C575.413 692.906 575.524 693.327 575.369 693.801C571.76 694.161 573.334 696.293 571.789 696.978C571.859 696.947 570.109 697.805 570.283 697.719C570.314 697.655 570.345 697.59 570.375 697.526C570.099 696.706 570.014 695.722 569.799 694.827L568.725 693.74C569.26 691.806 571.42 689.871 570.588 689.695C570.069 689.585 568.189 691.552 567.12 692.07C562.975 691.372 561.739 696.299 558.575 698.655C556.858 699.366 553.767 705.256 551.888 701.754C551.516 701.06 558.104 694.981 558.692 693.941C560.825 690.162 563.736 691.595 561.089 687.99C588.921 661.39 616.076 633.114 643.346 605.924C670.4 578.948 697.046 552.869 723.403 525.154Z"/><path fill="#FDFDFD" fill-opacity="0.59215689" d="M255.97 440.834C257.09 438.383 258.63 436.498 259.734 434.215C261.781 429.982 261.105 430.779 264.895 429.648C265.076 428.967 264.962 428.231 265.112 427.49L265.256 427.383C266.603 428.603 267.387 449.873 269.274 451.796L269.305 451.788C269.431 451.418 269.563 451.027 269.688 450.648C270.226 451.98 270.563 457.142 271.005 459.11L271.108 459.592L270.529 459.23C270.244 459.049 270.029 458.729 269.658 458.456C268.761 458.467 269.488 458.442 268.459 458.582C267.19 461.081 268.613 460.641 266.497 459.454C265.794 459.742 267.392 464.682 267.033 465.727C266.014 466.091 265.37 465.374 265.741 467.758C266.231 470.901 265.614 476.333 261.938 477.741C260.239 477.306 260.947 474.36 258.665 475.024C258.56 473.926 258.073 464.176 257.609 463.78L257.509 463.79L257.552 463.919L257.463 463.856C257.121 465.437 257.584 470.694 257.016 471.316L256.987 471.296C256.982 471.262 256.973 471.228 256.973 471.193C256.975 471.051 257.024 470.9 256.977 470.765C256.893 470.89 256.81 471.015 256.726 471.14C254.861 471.967 254.562 469.449 253.763 467.886C253.612 467.591 253.467 467.338 253.405 467.005C253.061 465.126 252.8 463.232 252.625 461.33C253.062 459.874 253.913 456.479 252.688 455.337C252.449 455.33 252.303 455.383 251.992 455.499C251.889 454.807 251.796 454.114 251.714 453.419C251.819 453.171 252.061 452.284 252.31 452.135C252.678 452.273 252.676 453.146 253.253 453.599C254.204 453.733 254.53 452.348 254.765 451.659L255.441 449.75C256.626 446.419 256.401 444.444 255.97 440.834Z"/><path fill="#FDFDFD" fill-opacity="0.39215687" d="M258.665 475.024C260.947 474.36 260.239 477.306 261.938 477.741C265.614 476.333 266.231 470.901 265.741 467.758C265.37 465.374 266.014 466.091 267.033 465.727C267.392 464.682 265.794 459.742 266.497 459.454C268.613 460.641 267.19 461.081 268.459 458.582C269.488 458.442 268.761 458.467 269.658 458.456C270.029 458.729 270.244 459.049 270.529 459.23L271.108 459.592C271.201 460.156 271.222 460.466 271.259 461.041C267.67 461.945 268.103 472.02 272.374 466.077C272.548 467.163 272.659 467.667 272.918 468.756L273.143 469.725C273.44 470.956 273.817 472.163 274.126 473.388C272.565 474.744 271.345 475.86 270.469 477.75C270.213 478.303 269.333 479.812 268.751 480.14C268.372 480.355 267.356 479.469 266.867 479.762C266.066 480.41 265.515 481.274 264.507 481.673C263.059 482.456 262.322 484.354 261.086 485.426C260.635 485.818 260.999 486.271 260.211 486.708C259.66 486.701 259.127 486.552 258.586 486.457C257.118 482.467 256.195 479.654 255.274 475.508C256.158 475.207 257.39 475.347 258.665 475.024Z"/><path fill="#FDFDFD" fill-opacity="0.25490198" d="M274.126 473.388C274.301 474.196 274.458 474.874 274.681 475.674L273.909 476.362C271.193 479.146 272.317 487.556 272.214 491.501C272.143 494.223 271.292 498.538 269.049 499.281C269.518 499.41 267.257 497.476 266.595 497.112C266.517 496.017 266.397 494.87 266.589 493.778C266.628 493.554 267.034 492.652 266.672 492.411C266.451 492.402 261.78 493.416 261.333 493.595C260.088 491.04 259.481 489.137 258.586 486.457C259.127 486.552 259.66 486.701 260.211 486.708C260.999 486.271 260.635 485.818 261.086 485.426C262.322 484.354 263.059 482.456 264.507 481.673C265.515 481.274 266.066 480.41 266.867 479.762C267.356 479.469 268.372 480.355 268.751 480.14C269.333 479.812 270.213 478.303 270.469 477.75C271.345 475.86 272.565 474.744 274.126 473.388Z"/><path fill="#FDFDFD" fill-opacity="0.81960785" d="M569.799 694.827C570.014 695.722 570.099 696.706 570.375 697.526C570.345 697.59 570.314 697.655 570.283 697.719C570.109 697.805 571.859 696.947 571.789 696.978C573.334 696.293 571.76 694.161 575.369 693.801C575.524 693.327 575.413 692.906 575.615 692.697C577.349 692.978 575.972 696.061 576.27 696.405C576.527 696.308 576.782 695.972 576.945 695.713C578.965 692.471 579.188 694.59 578.319 690.518C578.601 688.786 581.708 687.351 582.532 686.294C584.469 683.808 585.648 687.024 583.75 686.773C583.417 687.883 584.776 687.314 585.235 687.58C585.066 688.496 584.306 688.294 584.053 690.881C581.753 693.706 576.523 698.383 573.865 701.026C570.509 704.364 565.796 709.566 562.244 712.473C562.242 709.536 562.046 709.264 562.892 706.646C566.128 703.007 565.464 702.289 566.291 698.635C567.67 698.458 568.243 696.21 569.799 694.827Z"/><path fill="#FDFDFD" fill-opacity="0.26274511" d="M535.726 712.234C537.014 712.891 539.951 713.873 540.547 714.969C541.731 717.148 544.034 714.523 545.491 714.969C544.904 715.316 542.135 716.3 542.543 717.217C543.543 717.834 545.347 716.197 545.662 718.53C545.739 719.1 547.648 718.053 547.245 720.751C547.124 722.349 548.081 723.492 548.833 724.78C548.22 725.228 547.611 725.684 546.979 726.104C546.381 725.746 541.236 722.752 541.734 722.871C538.482 722.1 525.487 726.08 532.745 718.504C533.379 717.843 535.095 714.163 534.348 713.268C534.764 712.894 535.267 712.561 535.726 712.234Z"/><path fill="#FDFDFD" fill-opacity="0.51372552" d="M568.725 693.74L569.799 694.827C568.243 696.21 567.67 698.458 566.291 698.635C565.464 702.289 566.128 703.007 562.892 706.646L562.188 707.117C559.641 708.705 557.981 711.586 555.726 713.641C556.334 711.855 557.071 710.284 557.733 708.517C557.625 708.624 551.383 715.428 552.015 715.046C551.536 713.724 551.59 713.703 550.62 712.772C550.837 711.42 552.997 709.757 554.158 708.582C551.777 709.664 545.184 713.542 544.511 712.599C541.481 708.354 542.399 711.86 536.097 712.057C537.246 711.18 538.797 709.917 539.994 709.166C541.121 709.107 544.241 708.476 544.987 709.922C545.467 711.511 548.39 709.788 549.509 709.047C554.023 706.062 558.831 704.279 562.68 700.403C565.207 697.858 566.766 696.753 568.725 693.74Z"/><path fill="#FDFDFD" fill-opacity="0.6901961" d="M541.393 707.829C547.239 702.255 555.679 692.575 561.089 687.99C563.736 691.595 560.825 690.162 558.692 693.941C558.104 694.981 551.516 701.06 551.888 701.754C553.767 705.256 556.858 699.366 558.575 698.655C561.739 696.299 562.975 691.372 567.12 692.07C563.599 696.426 553.345 706.945 548.304 708.129C546.9 707.044 548.148 705.436 545.244 708.24C544.936 708.076 542.645 707.845 542.184 707.841L541.393 707.829Z"/><path fill="#FDFDFD" fill-opacity="0.054901961" d="M273.909 476.362L273.666 478.265C272.814 485.015 278.977 495.61 271.732 501.741C267.286 505.504 266.723 498.15 263.786 499.082C263.239 498.152 262.979 497.54 262.546 496.556C264.835 495.613 264.491 495.94 266.595 497.112C267.257 497.476 269.518 499.41 269.049 499.281C271.292 498.538 272.143 494.223 272.214 491.501C272.317 487.556 271.193 479.146 273.909 476.362Z"/><path fill="#FDFDFD" fill-opacity="0.56078434" d="M567.12 692.07C568.189 691.552 570.069 689.585 570.588 689.695C571.42 689.871 569.26 691.806 568.725 693.74C566.766 696.753 565.207 697.858 562.68 700.403C558.831 704.279 554.023 706.062 549.509 709.047C548.39 709.788 545.467 711.511 544.987 709.922C544.241 708.476 541.121 709.107 539.994 709.166C540.466 708.705 540.908 708.277 541.393 707.829L542.184 707.841C542.645 707.845 544.936 708.076 545.244 708.24C548.148 705.436 546.9 707.044 548.304 708.129C553.345 706.945 563.599 696.426 567.12 692.07Z"/><path fill="#FDFDFD" fill-opacity="0.70980394" d="M251.072 441.627C251.28 439.888 251.515 430.072 251.821 429.352C252.625 430.795 251.223 444.063 252.563 446.517C252.748 446.857 252.753 447.935 252.756 448.326C252.682 443.481 251.677 437.35 252.941 432.941L253.415 432.712L253.428 432.68C254.412 433.133 253.627 442.352 254.717 442.935C254.883 442.649 254.673 441.769 254.813 441.306C255.082 441.078 255.62 440.952 255.97 440.834C256.401 444.444 256.626 446.419 255.441 449.75L254.765 451.659C254.53 452.348 254.204 453.733 253.253 453.599C252.676 453.146 252.678 452.273 252.31 452.135C252.061 452.284 251.819 453.171 251.714 453.419C251.153 450.617 251.414 444.867 251.072 441.627Z"/><path fill="#FDFDFD" fill-opacity="0.32941177" d="M550.62 712.772C551.59 713.703 551.536 713.724 552.015 715.046C550.643 717.78 549.352 720.182 551.007 723.073C550.231 723.656 549.585 724.168 548.833 724.78C548.081 723.492 547.124 722.349 547.245 720.751C547.648 718.053 545.739 719.1 545.662 718.53C545.347 716.197 543.543 717.834 542.543 717.217C542.135 716.3 544.904 715.316 545.491 714.969C548.202 714.204 548.47 714.302 550.62 712.772Z"/><path fill="#FDFDFD" fill-opacity="0.39215687" d="M536.097 712.057C542.399 711.86 541.481 708.354 544.511 712.599C545.184 713.542 551.777 709.664 554.158 708.582C552.997 709.757 550.837 711.42 550.62 712.772C548.47 714.302 548.202 714.204 545.491 714.969C544.034 714.523 541.731 717.148 540.547 714.969C539.951 713.873 537.014 712.891 535.726 712.234L536.097 712.057Z"/><path fill="#FDFDFD" fill-opacity="0.44313726" d="M557.733 708.517C557.071 710.284 556.334 711.855 555.726 713.641C554.992 716.03 555.052 716.215 555.643 718.589C554.774 719.741 552.164 722.091 551.007 723.073C549.352 720.182 550.643 717.78 552.015 715.046C551.383 715.428 557.625 708.624 557.733 708.517Z"/><path fill="#FDFDFD" fill-opacity="0.52549022" d="M555.726 713.641C557.981 711.586 559.641 708.705 562.188 707.117L562.892 706.646C562.046 709.264 562.242 709.536 562.244 712.473C560.063 714.327 557.985 716.57 555.643 718.589C555.052 716.215 554.992 716.03 555.726 713.641Z"/><path fill="#FDFDFD" fill-opacity="0.97647059" d="M260.762 381.964C260.807 382.322 261.318 386.675 260.811 386.686C260.512 386.516 260.446 386.14 260.355 385.837C260.31 385.832 260.265 385.826 260.221 385.82C259.258 386.74 256.741 395.613 256.913 397.502C257.276 401.472 256.902 403.129 253.814 405.602C255.185 398.287 257.719 388.801 260.762 381.964Z"/><path fill="#FDFDFD" fill-opacity="0.57254905" d="M253.763 467.886C254.562 469.449 254.861 471.967 256.726 471.14C256.81 471.015 256.893 470.89 256.977 470.765C257.024 470.9 256.975 471.051 256.973 471.193C256.973 471.228 256.982 471.262 256.987 471.296L257.016 471.316C257.584 470.694 257.121 465.437 257.463 463.856L257.552 463.919L257.509 463.79L257.609 463.78C258.073 464.176 258.56 473.926 258.665 475.024C257.39 475.347 256.158 475.207 255.274 475.508C254.519 473.455 253.968 470.079 253.763 467.886Z"/><path fill="#FDFDFD" fill-opacity="0.2" d="M261.333 493.595C261.78 493.416 266.451 492.402 266.672 492.411C267.034 492.652 266.628 493.554 266.589 493.778C266.397 494.87 266.517 496.017 266.595 497.112C264.491 495.94 264.835 495.613 262.546 496.556C262.057 495.391 261.906 494.733 261.333 493.595Z"/><path fill="#FDFDFD" fill-opacity="0.31764707" d="M272.374 466.077C268.103 472.02 267.67 461.945 271.259 461.041C271.613 462.732 272.019 464.389 272.374 466.077Z"/><path fill="#FDFDFD" fill-opacity="0.53725493" d="M251.992 455.499C252.303 455.383 252.449 455.33 252.688 455.337C253.913 456.479 253.062 459.874 252.625 461.33C252.364 459.211 252.071 457.664 251.992 455.499Z"/></svg>