<?xml version="1.0" encoding="utf-8" ?><svg xmlns="http://www.w3.org/2000/svg" xmlns:xlink="http://www.w3.org/1999/xlink" width="1024" height="1024" viewBox="0 0 1024 1024"><path fill="#080807" d="M366.405 262.156C366.829 251.296 369.757 235.276 372.891 224.998C384.145 186.881 410.465 155.006 445.764 136.742C479.209 119.492 518.038 115.877 554.093 126.656C554.402 128.36 556.079 127.305 556.753 128.155C556.641 128.358 556.531 128.568 556.437 128.781C556.821 129.535 560.481 130.425 561.34 130.77C564.069 131.866 563.105 131.647 565.915 130.497C566.572 132.306 565.976 131.341 565.396 132.329C565.878 132.867 568.274 133.905 569.187 133.52L569.188 133.486L569.134 133.457L569.557 133.196L569.652 133.135C570.199 133.205 570.205 133.191 570.651 133.492C570.757 133.914 570.244 134.01 570.213 134.399C570.237 134.425 577.027 137.843 578.032 137.052C579.285 136.066 579.181 138.577 579.098 138.396C579.675 138.763 586.555 142.527 586.84 142.377C589.186 141.145 587.009 145.025 590.73 144.18C590.783 144.168 592.56 144.197 592.464 144.197C633.6 168.54 655.983 215.326 659.236 261.758C667.449 264.189 675.472 266.442 683.368 269.816C708.623 280.548 729.508 299.502 742.632 323.6C758.098 352.647 761.396 386.647 751.798 418.123C750.386 422.757 748.59 427.555 746.939 432.126C776.027 446.538 798.201 471.912 808.587 502.668C817.812 530.432 816.646 563.369 803.869 589.887C800.051 590.261 801.578 591.919 799.372 595.159C798.68 596.176 796.723 599.918 796.848 601.136L796.799 601.209C794.906 601.246 795.267 603.928 795.294 605.105C793.08 609.737 785.427 618.449 781.664 622.467C761.841 643.594 734.96 656.721 706.11 659.361C696.287 660.292 684.326 659.873 674.274 659.96C652.259 660.151 629.799 659.745 607.837 660.008C594.903 660.534 585.278 664.546 576.497 673.863C563.946 686.624 564.313 701.955 564.44 718.804C564.599 739.874 564.072 761.427 564.591 782.517C564.783 790.339 566.135 800.892 568.065 808.402C576.939 843.618 603.363 871.758 637.951 882.827C643.321 884.545 660.6 886.833 663.532 890.202C671.108 898.908 667.117 911.897 653.838 911.947C632.9 912.027 611.911 911.928 590.952 911.948L458.874 911.986L396.966 911.979C391.736 911.99 372.022 912.336 368.253 911.696C365 911.126 362.135 909.216 360.357 906.433C358.452 903.476 357.794 899.404 358.669 895.99C361.207 886.084 373.826 886.337 382.189 884.232C391.617 881.827 400.641 878.046 408.967 873.011C432.905 858.44 450.214 835.104 457.211 807.968C462.905 785.103 460.474 758.215 460.792 734.519C460.912 725.573 461.454 704.72 460.209 696.769C459.294 691.136 457.301 685.733 454.34 680.856C448.549 671.364 439.372 664.424 428.661 661.438C420.408 659.12 406.68 659.845 397.598 659.872L353.509 659.964C334.402 659.978 320.536 660.987 301.639 656.386C271.23 649.018 244.967 629.926 228.579 603.273C211.972 575.732 206.929 542.743 214.55 511.499C220.658 487.441 234.096 465.878 253.003 449.797C260.686 443.379 269.412 437.928 277.994 432.791C274.916 424.235 272.148 415.725 270.267 406.815C263.831 376.338 270.366 343.227 287.122 317.129C305.001 288.811 333.616 268.97 366.405 262.156ZM237.084 547.812C235.768 558.117 237.331 565.37 242.075 574.784C243.133 576.883 242.714 578.63 245.202 579.502L245.781 580.6C260.921 609.213 284.241 627.462 316.906 632.224C326.215 633.581 340.751 633.069 350.482 633.06L395.432 633.003C414.712 632.971 422.9 631.853 441.556 637.575C423.026 604.317 372.717 578.766 336.215 573.098C331.813 572.414 319.571 571.364 316.844 567.912C306.07 554.272 319.024 542.367 334.022 546.542C375.026 552.678 414.445 570.875 443.617 599.842C466.07 621.856 480.713 650.604 485.317 681.709C486.621 690.982 486.883 704.462 486.912 713.909L486.922 755.722C486.887 797.111 484.596 826.55 458.203 861.528C449.964 872.447 443.331 877.873 434.016 887.246C446.047 887.539 460.871 887.003 473.247 886.97L556.39 886.966C566.769 886.973 580.808 886.476 590.875 886.879C586.478 881.892 581.379 878.417 576.71 873.733C564.272 861.443 555.557 847.288 548.721 831.33C535.864 801.317 537.842 769.076 537.993 737.128C538.073 720.038 536.802 698.479 539.026 681.769C540.794 669.286 544.181 657.086 549.101 645.477C565.297 607.762 599.544 575.997 637.588 560.901C649.811 556.051 693.495 541.637 705.24 547.079C708.319 548.506 710.469 551.289 711.495 554.481C712.629 558.011 712.419 562.057 710.536 565.298C709.179 567.633 707.095 569.184 704.621 570.188C699.301 572.346 692.699 572.453 687.018 573.466C682.303 574.306 677.622 575.553 672.995 576.782C641.997 585.014 612.866 600.623 592.322 625.727C589.224 629.513 586.021 633.286 583.561 637.528C600.977 632.831 610.367 633.179 628.314 633.099L680.534 633.157C698.441 633.076 707.987 633.869 725.39 628.176C749.128 620.74 769.465 602.346 779.944 579.858C800.28 536.128 783.374 483.618 741.801 459.434C738.859 457.899 735.187 455.833 732.1 454.728C707.58 445.95 715.734 438.548 723.625 420.516C732.883 398.796 733.927 374.451 726.564 352.018C716.717 322.932 694.758 300.121 665.502 289.873C657.415 286.785 648.242 286.569 640.357 283.234C632.212 279.789 634.128 266.488 633.478 259.146C632.498 248.056 630.519 238.186 626.944 227.654C616.638 197.74 595.064 173.029 566.815 158.781C537.757 144.24 504.063 142.036 473.358 152.669C426.556 168.69 396.213 213.605 392.59 261.633C392.214 266.613 392.912 274.421 390.582 278.74C386.706 285.922 373.853 285.57 367.015 288.036C339.3 295.754 319.308 311.577 305.414 336.953C291.967 361.715 289.861 391.075 299.636 417.502C302.355 424.771 307.658 431.999 309.546 439.079C307.691 447.184 306.141 449.966 297.879 452.764C282.997 457.802 271.778 465.78 261.106 477.33C242.352 497.628 236.614 520.9 237.084 547.812Z"/><path fill="#080807" d="M512.729 595.888C514.654 592.969 516.267 589.862 517.997 586.822C543.078 542.733 576.576 501.082 620.108 474.121C625.757 470.622 633.242 464.897 640.176 466.156C643.419 466.758 646.256 468.702 647.989 471.509C649.897 474.534 650.504 478.201 649.672 481.68C647.878 489.013 639.234 492.285 632.717 496.297C586.511 524.809 552.407 574.653 528.995 622.171C526.937 626.348 522.586 629.379 518.063 630.296C498.241 634.313 495.343 619.044 488.314 605.569C485.772 600.782 483.062 596.087 480.188 591.491C458.485 556.076 434.448 526.492 400.526 501.707C394.59 497.4 388.03 494.085 381.767 490.296C370.59 483.535 372.316 468.298 386.019 466.166C394.515 466.429 405.985 475.043 413.053 479.772C456.959 509.15 487.355 550.352 512.729 595.888Z"/><path fill="#080807" fill-opacity="0.96862745" d="M237.084 547.812C237.479 550.414 237.907 554.066 238.078 556.75C238.581 564.621 243.501 572.578 245.202 579.502C242.714 578.63 243.133 576.883 242.075 574.784C237.331 565.37 235.768 558.117 237.084 547.812Z"/><path fill="#080807" fill-opacity="0.96862745" d="M565.915 130.497C573.781 134.064 580.502 136.944 588.059 141.299C589.587 142.171 591.058 143.138 592.464 144.197C592.56 144.197 590.783 144.168 590.73 144.18C587.009 145.025 589.186 141.145 586.84 142.377C586.555 142.527 579.675 138.763 579.098 138.396C579.181 138.577 579.285 136.066 578.032 137.052C577.027 137.843 570.237 134.425 570.213 134.399C570.244 134.01 570.757 133.914 570.651 133.492C570.205 133.191 570.199 133.205 569.652 133.135L569.557 133.196L569.134 133.457L569.188 133.486L569.187 133.52C568.274 133.905 565.878 132.867 565.396 132.329C565.976 131.341 566.572 132.306 565.915 130.497Z"/><path fill="#080807" fill-opacity="0.97254902" d="M795.294 605.105C795.267 603.928 794.906 601.246 796.799 601.209L796.848 601.136C796.723 599.918 798.68 596.176 799.372 595.159C801.578 591.919 800.051 590.261 803.869 589.887C802.035 593.796 798 601.902 795.294 605.105Z"/><path fill="#080807" fill-opacity="0.96470588" d="M554.093 126.656C555.756 126.818 560.247 128.423 561.955 129.083C563.265 129.581 564.586 130.053 565.915 130.497C563.105 131.647 564.069 131.866 561.34 130.77C560.481 130.425 556.821 129.535 556.437 128.781C556.531 128.568 556.641 128.358 556.753 128.155C556.079 127.305 554.402 128.36 554.093 126.656Z"/></svg>