<?xml version="1.0" encoding="utf-8" ?><svg xmlns="http://www.w3.org/2000/svg" xmlns:xlink="http://www.w3.org/1999/xlink" width="1024" height="1024" viewBox="0 0 1024 1024"><path fill="#14104E" d="M356.657 319.285C378.797 318.485 403.81 318.95 426.07 318.95L552.149 318.997L641.704 318.945C656.95 318.948 672.264 318.782 687.493 319.191C691.397 319.421 696.275 321.687 697.806 325.493C701.117 333.723 700.023 345.194 700.026 354.048L700.065 396.488C713.425 396.968 727.202 393.072 727.413 412.238C727.599 429.087 727.525 445.975 727.541 462.826L727.569 564.04L727.561 620.24C727.563 628.381 728.048 644.77 726.833 652.042C724.781 664.243 719.223 675.584 710.839 684.681C697.865 698.895 683.416 703.946 664.893 704.865L450.869 704.896L387.715 704.969C362.114 704.995 340.541 708.106 319.613 690.221C307.103 679.462 299.337 664.207 297.996 647.762C297.503 641.251 297.715 632.722 297.726 626.06L297.712 593.979L297.803 482.213L297.711 407.646C297.714 396.765 296.736 380.036 298.422 369.677C303.266 339.917 328.187 321.43 356.657 319.285ZM690.132 669.901C704.364 655.311 702.605 646.146 702.574 627.004L702.53 591.877L702.617 475.914C702.624 458.89 702.096 438.679 702.623 421.92L455.487 421.91L382.497 421.932C369.278 421.945 355.214 422.307 342.069 421.407C336.577 421.031 326.935 417.2 322.51 414.22C321.537 426.148 322.179 446.606 322.218 459.238L322.236 538.315L322.26 609.033C322.268 621.31 321.933 634.704 322.876 646.8C324.196 663.723 340.512 679.255 357.357 680.123C364.615 680.49 372.036 680.304 379.297 680.234C390.535 680.123 401.773 680.078 413.011 680.101L531.442 680.106L623.856 680.168C636.366 680.184 648.906 680.201 661.414 680.231C672.987 680.259 681.385 677.829 690.132 669.901ZM641.25 396.655C652.325 396.683 663.925 396.885 674.96 396.613C675.247 379.208 675.265 361.8 675.011 344.395C662.897 343.348 640.703 344.088 627.936 344.105L541.624 344.059L419.48 344.09C399.895 344.085 374.668 343.316 355.614 344.188C339.049 346.491 322.052 359.525 323.05 378.761C323.577 388.933 338.79 396.349 347.614 396.268C359.083 396.828 370.384 396.711 381.77 396.716L443.476 396.721L641.25 396.655Z"/></svg>